<?xml version="1.0" encoding="UTF-8" standalone="no"?>
<!-- Created with Inkscape (http://www.inkscape.org/) -->
<svg
   xmlns:svg="http://www.w3.org/2000/svg"
   xmlns="http://www.w3.org/2000/svg"
   version="1.0"
   width="800"
   height="631"
   id="svg2">
  <defs
     id="defs5" />
  <path
     d="M 312.5,620.50922 C 305.19997,618.45806 298.28651,614.77431 290.60395,608.84218 L 287.70791,606.60598 L 284.60395,610.28176 C 282.58472,612.67299 279.2928,614.85081 275.18406,616.51364 L 268.86811,619.06974 L 258.18406,616.50796 C 243.9283,613.08978 232.01033,609.39876 223.5,605.76624 C 210.09086,600.04274 187.1277,588.14842 182.12951,584.3374 C 179.36147,582.22683 175.38746,579.24131 173.29836,577.70292 C 171.20926,576.16452 164.775,570.64 159,565.42621 C 127.97728,537.41822 120.27328,530.60363 118,529.15951 C 116.625,528.28603 113.25,525.7033 110.5,523.4201 C 102.57906,516.84373 90.566145,511.41274 82.094112,510.57793 C 67.266349,509.11684 61.395332,505.99096 44.5,490.56182 C 32.668828,479.75738 31.166372,478.74463 22.855795,475.9723 C 14.156906,473.07044 8,467.17456 8,461.74634 C 8,456.45543 11.492531,453 16.840239,453 C 19.00237,453 22.060324,452.3218 23.635693,451.49288 C 25.354523,450.58848 27.632492,450.22753 29.331839,450.59031 C 31.442083,451.04081 32.766849,450.62821 34.530772,448.97109 C 36.366873,447.24616 37.52621,446.91154 39.698933,447.47937 C 41.23952,447.882 47.259111,448.50135 53.075801,448.85571 C 63.649207,449.49985 63.653235,449.5011 70.85803,454.33506 L 78.064458,459.17011 L 84.929195,457.94332 C 93.766078,456.36408 104.72047,457.1399 109.64112,459.6935 C 112.5015,461.1779 114.36218,463.36759 117.16763,468.55083 C 123.42938,480.11983 128.97376,482.94719 150,485.29371 C 157.425,486.12234 166.8648,487.57306 170.97733,488.51755 C 178.29135,490.19728 195.77595,497.79065 199.25,500.79605 C 201.49088,502.73464 201.41957,501.5091 199,496.5 C 196.62661,491.58649 196.41247,482.67173 198.49768,475.58789 C 199.32141,472.78955 200.43502,468.7 200.97239,466.5 C 201.50975,464.3 203.74744,460.025 205.94503,457 C 208.14263,453.975 211.31598,449.59054 212.99693,447.25675 C 214.67788,444.92297 217.83196,442.10605 220.00599,440.99694 C 222.18003,439.88783 224.65561,437.63287 225.50728,435.98592 C 226.35895,434.33897 228.84322,431.80859 231.02789,430.36285 C 235.45345,427.43415 235.89194,425.42786 233.86545,417.37992 C 232.95156,413.75056 233.04167,411.47629 234.32869,405.6871 C 235.20747,401.73419 236.19291,396.025 236.51854,393 C 236.84418,389.975 237.81471,384.575 238.67529,381 C 240.44679,373.64085 239.94362,359.81573 237.55185,350.13263 C 236.78664,347.03468 235.63601,342.025 234.99489,339 C 234.35377,335.975 233.64597,332.81853 233.42201,331.98563 C 233.19804,331.15273 230.19897,329.37478 226.7574,328.03463 C 223.31583,326.69448 219.6,325.0636 218.5,324.41045 C 217.4,323.7573 214.7,322.66297 212.5,321.97861 C 208.84545,320.84178 202.42662,316.44813 195.00006,310 C 191.90947,307.31659 178.47407,283.62343 177.17142,278.55942 C 176.15387,274.60374 172.7801,274.11833 166.28643,276.9933 C 162.13297,278.83217 159.14701,279.16216 143.70717,279.48857 C 130.04951,279.7773 124.70416,279.51919 120.70717,278.37799 C 115.00787,276.75075 113.30444,276.3718 107.8629,275.52064 C 104.48024,274.99153 104.06805,274.5299 101.97079,268.92188 C 98.982229,260.93056 100.09574,257.05102 107.82036,248.54165 C 113.47516,242.31238 119.76099,234.37366 128.83588,222 C 136.25839,211.87937 136.896,210.76846 151.38733,182.70868 C 156.27536,173.2439 161.04959,164.375 161.99673,163 C 162.94386,161.625 164.51553,158.79735 165.48931,156.71633 C 167.35636,152.72639 175.57452,145.22466 180.29705,143.19947 C 181.83543,142.53976 184.53543,142.00168 186.29705,142.00374 C 189.1701,142.00709 190.69433,142.72708 197.37306,147.23558 C 198.40325,147.93101 205.36543,152.56579 212.84458,157.53509 C 223.98602,164.93768 227.17092,167.61269 230.47152,172.34002 C 237.9059,182.98801 241.85711,189.44922 245.85757,197.5 C 248.04394,201.9 250.95036,207.1411 252.31628,209.14688 C 253.6822,211.15266 255.08724,213.69952 255.43861,214.80657 C 256.83874,219.21799 258.40014,219.24456 265.79222,214.98271 C 271.15996,211.88797 273.0983,210.16231 273.95856,207.7124 C 275.53838,203.21325 276.40392,190.38841 275.57532,183.75656 C 274.97062,178.9167 274.55184,178.10433 272.38059,177.55939 C 268.6241,176.61657 260.94395,169.06983 258.76948,164.18471 C 257.06328,160.35159 256.98849,159.32375 258.10022,154.98604 L 259.35179,150.10267 L 252.13271,142.50286 C 248.16222,138.32297 244.47948,133.76114 243.94885,132.36545 C 242.70381,129.09076 244.16922,119.96306 246.89732,114 C 248.55574,110.37504 248.96035,107.44426 248.97804,98.928139 C 249.00191,87.434466 250.71483,80.221329 254.38503,76.159146 C 257.69422,72.496529 264.89676,67.944861 272,65.027305 C 278.08976,62.526026 278.55092,62.109561 279.30674,58.428762 C 281.74455,46.556885 282.41013,44.218455 284.19166,41.266196 C 285.26495,39.487604 288.57828,35.951949 291.55462,33.409185 C 297.32633,28.478261 297.28013,28.491747 317,25.981721 C 324.37539,25.042951 324.58307,24.936803 329.5,19.592754 C 335.75629,12.792997 341.23837,10.031324 349.92574,9.3030062 C 357.73045,8.6486876 362.85035,9.9521531 368,13.9045 C 374.15505,18.628484 378.70184,20.898161 379.80344,19.796564 C 380.36858,19.231418 382.73464,19.038598 385.15801,19.3602 C 398.3982,21.117289 397.81313,20.865453 402.29101,26.734852 C 404.60595,29.76918 408.3,34.160675 410.5,36.49373 C 414.47144,40.705362 414.56426,40.740939 423.5,41.476918 C 433.40693,42.292886 438.94467,44.459723 441.64134,48.575367 C 443.06835,50.753254 443.1586,52.027183 442.26033,57.312504 C 441.68195,60.715627 440.91683,64.4 440.56007,65.5 C 440.11931,66.85896 441.08946,69.42312 443.58685,73.5 C 448.30668,81.204913 449.05808,87.005661 446.08996,92.823661 C 444.91813,95.120647 443.55064,97 443.0511,97 C 440.23714,97 439,100.37144 439,108.04004 C 439.94174,122.10446 439.67687,113.86392 439.99245,122.41667 C 439.96664,136.36792 433.08591,156.47162 425.44024,164.93447 L 421.65989,169.11887 L 421.48755,183.30943 C 421.24791,203.04116 419.76875,207.26231 408.45027,220.51449 C 403.75961,226.00652 399.08494,231.91102 398.06212,233.6356 C 396.20354,236.76935 396.20385,236.77185 398.56798,237.84902 C 400.52414,238.7403 401.41517,238.53756 403.71675,236.67746 C 409.97083,231.62303 433.39557,217.15721 440.46829,213.98176 C 443.20085,212.75491 447.10313,211.5276 449.14004,211.25439 C 452.75566,210.76944 452.91059,210.88505 455.67175,216.12883 C 458.48838,221.47794 458.5,221.57804 458.5,240.5 L 458.5,259.5 L 455.61682,265 C 454.03107,268.025 451.89127,271.57612 450.8617,272.89137 C 449.43622,274.71239 449.25869,275.60677 450.11732,276.64137 C 451.7521,278.61115 452.89192,278.39071 461.62516,274.41569 C 474.42456,268.58991 548.07498,232.3251 552,229.91592 C 552.825,229.40954 554.53478,228.54896 555.79952,228.00354 C 557.06426,227.45811 561.39219,225.40604 565.41715,223.44338 L 572.73526,219.87492 L 572.68567,212.17477 C 572.62934,203.42645 574.68333,197.83589 581.76529,187.46178 C 587.84495,178.55592 599.9765,172.8803 600.79328,178.55973 C 600.95607,179.69173 599.58071,182.5791 597.70196,185.04952 C 593.43648,190.65828 589.23897,201.09232 588.42632,208.10659 C 587.89275,212.71198 588.26704,214.66886 590.9881,221.5 C 592.74075,225.9 594.51023,229.95 594.92026,230.5 C 597.22277,233.58844 604.01909,253.79592 605.51455,262 C 605.86545,263.925 606.78631,267.3 607.56091,269.5 C 610.64645,278.26346 613.42325,314.66458 612.56207,335.06021 L 611.98951,348.62043 L 616.3636,351.8978 C 621.30666,355.60148 623.59392,360.77524 622.65841,366.13662 C 620.50374,378.4851 619.79088,384.12421 620.31791,384.65124 C 620.65097,384.98431 624.4282,386.12584 628.71174,387.18797 C 632.99528,388.25011 639.875,390.01584 644,391.11183 C 648.125,392.20781 655.47499,393.97763 660.33332,395.04474 C 665.19165,396.11186 669.64711,397.2819 670.23434,397.64483 C 670.82158,398.00776 676.74658,399.56069 683.40102,401.09579 C 690.05546,402.63088 698.875,404.84443 703,406.01479 C 707.125,407.18514 712.975,408.71087 716,409.4053 C 719.025,410.09973 723.075,411.18924 725,411.82644 C 726.925,412.46364 730.975,413.59496 734,414.34048 C 737.025,415.086 740.14827,415.87688 740.94061,416.09799 C 741.73295,416.31909 742.49048,415.825 742.62402,415 C 742.75756,414.175 743.13706,411.83976 743.46736,409.81058 C 744.21186,405.23669 748.87096,401.98566 754.61803,402.02984 C 759.3519,402.06623 763.22015,405.2912 774.64981,418.73037 C 793.80619,441.25472 794.32067,442.6114 784.5,444.70531 C 773.07203,447.14192 769.44905,447.9567 758.5,450.55248 C 743.4649,454.11698 741.51032,453.9809 736.55403,449.02462 C 733.13656,445.60715 732.54942,444.4066 732.63828,441.01794 C 732.70712,438.39229 733.78929,435.42278 735.80855,432.31858 C 738.94425,427.49806 739.06812,426 736.33098,426 C 735.47794,426 728.867,424.37305 721.64,422.38456 C 714.413,420.39606 705.78973,418.2358 702.47717,417.58397 C 699.16462,416.93215 695.8554,416.02867 695.12336,415.57624 C 693.57994,414.62235 681.77331,411.37495 674.5,409.9038 C 671.75,409.34756 667.7,408.26206 665.5,407.49156 C 663.3,406.72106 657.9,405.34906 653.5,404.44266 C 649.1,403.53627 642.575,401.99451 639,401.01654 C 635.425,400.03857 628.80549,398.23366 624.28997,397.00562 L 616.07994,394.77284 L 612.67189,398.38642 C 609.48325,401.76736 607.85046,402.45447 603.90015,402.07773 C 602.84585,401.97719 601.69038,403.55768 600.51169,406.71258 C 598.60737,411.80974 593.31932,424.1649 589.41668,432.63534 C 588.11536,435.45977 584.78925,441.4553 582.02532,445.95874 C 579.2614,450.46218 577,454.52337 577,454.98361 C 577,455.44385 575.28225,457.99831 573.18279,460.6602 C 571.08332,463.32209 568.90911,466.32113 568.35121,467.32473 C 566.89532,469.94374 549.34829,490.39667 543.86033,495.87146 C 541.30851,498.41716 533.9533,504.775 527.51542,510 C 521.07753,515.225 513.94038,521.11342 511.65508,523.08537 C 509.36979,525.05732 504.125,528.55126 500,530.84967 C 495.875,533.14809 489.35,537.04066 485.5,539.49984 C 481.65,541.95901 476.475,545.19758 474,546.69666 C 466.96468,550.95787 459.79502,556.81424 456.33114,561.12907 C 453.40065,564.77946 449,576.11514 449,580.01342 C 449,582.31923 445.5428,585.25074 443.3244,584.82602 C 441.35413,584.4488 439.49674,578.64806 438.37281,569.36189 C 437.3786,561.14742 440.97754,554.53897 452.41506,543.57722 L 461.72512,534.65443 L 443.36256,497.85869 C 433.26315,477.62103 425,460.63759 425,460.11771 C 425,459.59783 423.69163,456.54616 422.09252,453.33623 C 420.4934,450.12631 417.94446,444.65967 416.4282,441.18816 L 413.67137,434.87631 L 412.25713,438.18816 C 408.26123,447.54571 406.80606,462.27494 408.53042,475.90988 C 409.41093,482.87227 407.68415,489.21242 402.8258,496.85525 C 400.4868,500.53481 399.36646,504.86774 398.00492,515.5 C 395.62506,534.08428 395.06393,535.95978 387.18507,551.66413 C 378.95213,568.07424 377.78884,569.60131 347.81542,603.34547 C 328.6833,624.88446 330.83292,623.01662 325.33568,622.87853 C 322.67606,622.81173 316.9,621.74554 312.5,620.50922 z M 334.2691,607.84188 C 340.78606,599.67248 343.0918,596.93563 358.27881,579.34295 C 365.00047,571.55657 371.93019,563.22961 373.67821,560.8386 C 376.30296,557.24835 382.23386,545.58743 386.05713,536.5 C 387.57308,532.8968 390.23931,521.62741 391.09434,515.2092 C 391.55527,511.74926 392.19917,508.48676 392.52522,507.9592 C 392.85127,507.43164 392.92768,507 392.69502,507 C 392.46236,507 390.98068,508.9125 389.40239,511.25 C 387.8241,513.5875 381.3504,521.45892 375.01639,528.74205 C 368.68237,536.02518 362.21813,543.56274 360.6514,545.49218 C 357.27289,549.65284 352.14595,553.38002 342.172,558.92635 C 333.97075,563.48691 328.36949,564.80065 324.2613,563.1272 C 322.74259,562.50856 319.30154,561.88936 316.61453,561.7512 L 311.72905,561.5 L 307.9067,568.5 C 299.24969,584.35383 292.01937,599.39733 292.80014,599.93088 C 293.25819,600.2439 296.30305,602.56851 299.56648,605.09669 C 307.02874,610.87769 308.39916,611.58899 314.52229,612.85938 C 317.26003,613.42739 321.075,614.29599 323,614.78961 C 324.925,615.28322 327.07109,615.3973 327.7691,615.04311 C 328.4671,614.68891 331.3921,611.44836 334.2691,607.84188 z M 275.03541,607.24043 C 277.22674,605.80572 280.02727,603.0272 281.25881,601.06594 C 289.19359,588.42955 296.41207,574.68419 303.50605,558.70294 L 308.29881,547.90587 L 307.24719,528.70294 C 305.64698,499.48241 304.09036,494.33265 293.07696,481.82368 C 287.59232,475.59425 281.72356,473.57329 268.99651,473.53133 C 259.95302,473.50152 259.14258,473.6807 252.2532,477.23323 C 241.33839,482.86148 238.11809,485.17537 230.79282,492.65316 C 223.3962,500.2038 220.32311,505.8667 221.96121,508.92752 C 222.51513,509.96253 222.92666,512.53976 222.87571,514.65468 C 222.82476,516.76961 223.10954,519.7385 223.50854,521.25221 C 224.62108,525.4729 220.06872,531 215.47984,531 C 212.43381,531 211.68219,530.40711 208.57959,525.55696 C 206.66456,522.56329 203.59264,518.40079 201.75311,516.30696 C 199.91357,514.21313 197.65612,511.30051 196.73654,509.83446 C 195.79682,508.33632 191.87524,505.55136 187.78229,503.47551 C 183.77703,501.44413 180.01931,499.39392 179.4318,498.91948 C 178.84428,498.44504 175.91928,497.53934 172.9318,496.90682 C 169.94431,496.27429 166.375,495.19271 165,494.5033 C 163.59258,493.79764 156.81861,493.0165 149.5,492.71593 C 137.69963,492.23129 135.46138,491.82014 125.24477,488.26041 C 111.17409,483.35783 106.48668,479.42664 110.37772,475.79187 C 112.50852,473.80141 107.12969,466.47594 102.91902,465.6338 C 97.529186,464.55584 89.684746,464.93001 83.967928,466.53774 C 71.238315,470.11768 65,469.35304 65,464.21281 C 65,462.22911 64.110078,460.71817 62.040493,459.18806 C 58.348654,456.45856 57.37849,456.44465 56.681174,459.11119 C 56.191055,460.98541 55.644796,461.14943 51.814543,460.57244 C 40.410642,458.85456 37.620592,458.84291 31.75513,460.48867 C 27.82238,461.59214 24.222919,461.9606 21.445118,461.54404 C 16.837153,460.85303 14.991648,462.08008 16.999751,464.4997 C 17.644313,465.27635 21.802812,467.16914 26.240859,468.7059 C 33.561848,471.24093 35.332076,472.42722 45.332695,481.5 C 61.437113,496.11028 68.946131,500.25297 82.623366,502.07307 C 91.847282,503.30055 102.64049,508.0936 110.5,514.45254 C 112.7,516.23251 116.3,518.83509 118.5,520.23605 C 120.7,521.63702 125.65,525.56645 129.5,528.96812 C 133.35,532.36979 138.075,536.19265 140,537.46336 C 141.925,538.73407 148.53468,544.43715 154.68817,550.13687 C 166.42065,561.00418 183.46502,575.60825 189.78202,580.20622 C 193.97358,583.25715 217.38557,595.3902 223.5,597.68027 C 227.81297,599.29563 232.8509,600.84398 251.5,606.28575 C 269.76342,611.61498 268.43608,611.56114 275.03541,607.24043 z M 108.51679,498.02717 C 108.18611,497.49212 106.13456,496.57478 103.95778,495.98863 C 100.69444,495.1099 100,494.48668 100,492.43671 C 100,488.27375 108.281,486.40724 112.77749,489.5567 C 115.22599,491.2717 115.78905,495.81095 113.8,497.8 C 112.35441,499.24559 109.34967,499.37479 108.51679,498.02717 z M 452.24246,555.75 C 455.07592,551.4875 457.7151,548 458.1073,548 C 458.49951,548 461.05884,546.23062 463.79471,544.06804 C 466.53057,541.90546 472.93645,537.96796 478.02998,535.31804 C 483.12352,532.66812 488.03091,530.05 488.93528,529.5 C 492.19357,527.51846 501,520.81843 501,520.32103 C 501,520.04128 498.8625,521.33728 496.25,523.20105 C 493.6375,525.06481 488.125,528.3159 484,530.4257 C 469.82787,537.67427 462.48829,542.51163 456.29795,548.68351 C 450.28673,554.6768 443.95772,565.02206 444.03914,568.72148 C 444.06106,569.71725 444.74119,568.9596 445.5845,567 C 446.41292,565.075 449.409,560.0125 452.24246,555.75 z M 339.11894,551.17932 C 348.13184,546.64844 348.85654,546.01832 361.96356,531.31611 C 385.82512,504.55047 395.22677,492.51837 399.8907,482.77744 C 401.98428,478.40485 402.03506,477.88814 400.57592,475.80493 C 399.70917,474.56746 399,472.54529 399,471.31122 L 399,469.06745 L 395.75,470.9214 C 391.86146,473.1396 382.92633,475.95686 370,479.04042 C 357.79678,481.95148 334.15842,482.28356 327.12427,479.64276 C 324.71762,478.73924 321.64321,478 320.29225,478 C 314.62282,478 296.81548,470.48251 283.5,462.4679 C 281.3,461.14372 277.475,458.97935 275,457.65819 C 259.95823,449.62888 253.23014,445.63661 250.77305,443.28257 C 249.24402,441.81767 245.85708,439.44608 243.2465,438.01236 L 238.5,435.40561 L 227.9296,445.17276 C 218.44927,453.93269 216.82507,455.96131 212.1796,464.84444 C 207.49002,473.81194 207.00337,475.35214 207.03562,481.12449 C 207.05521,484.63102 207.76646,490.2 208.61617,493.5 C 209.46588,496.8 211.07104,503.2413 212.18321,507.81401 C 213.29537,512.38671 214.35891,515.97443 214.54663,515.78671 C 214.73434,515.59899 214.51434,512.75769 214.05772,509.4727 C 213.47493,505.28001 213.59811,502.59682 214.47103,500.46946 C 216.32227,495.95788 237.91575,476.26475 247.33249,470.5 L 255.5,465.5 L 266.22671,465.16214 C 272.12641,464.97632 279.25274,465.3174 282.063,465.92009 C 292.71349,468.20421 308.59203,484.16784 311.48525,495.5 C 312.35477,498.90572 313.78204,516.89656 314.80627,537.36145 L 315.5,551.2229 L 321.5,553.954 C 324.8,555.4561 328.01992,556.49914 328.65538,556.27187 C 329.29083,556.04459 333.99943,553.75295 339.11894,551.17932 z M 491.65251,517.80876 C 513.03481,502.09139 523.81256,492.88227 532.44568,482.95274 C 536.00952,478.85373 540.29251,473.925 541.96344,472 C 543.63437,470.075 547.23285,465.35 549.96007,461.5 C 552.68729,457.65 556.20201,452.7 557.77056,450.5 C 564.81155,440.6245 578.1551,414.23988 581.93519,402.71854 C 583.13774,399.0533 583.06559,398.81501 579.58794,394.96565 C 577.61457,392.78138 576,390.35292 576,389.56908 C 576,388.58056 574.3915,387.98936 570.75,387.63946 C 550.88145,385.73038 537.34088,383.70878 520.5,380.13715 C 512.14446,378.3651 510.02072,377.5213 495.5,370.20421 C 482.78625,363.79765 480.765,363.08527 473.5,362.45037 C 469.1,362.06585 464.28485,361.13222 462.79966,360.37562 C 461.17639,359.54869 456.91681,359 452.12038,359 C 445.682,359 442.1002,358.32423 433.56932,355.5 C 427.75465,353.575 422.6163,352 422.15076,352 C 421.68522,352 421.48594,356.3875 421.70791,361.75 C 422.14645,372.34465 420.95589,390.71642 418.62834,409.27115 C 417.75145,416.26151 417.48422,422.1506 417.97036,423.77115 C 418.4206,425.27202 420.85128,430.325 423.37187,435 C 425.89247,439.675 432.69077,453.175 438.47921,465 C 444.26765,476.825 449.85123,488.075 450.88716,490 C 451.92309,491.925 456.06623,500.025 460.09413,508 C 464.12202,515.975 468.25077,523.93318 469.26912,525.68485 L 471.12067,528.8697 L 479.13593,524.99361 C 483.54433,522.86176 489.17679,519.62858 491.65251,517.80876 z M 507,516.34981 C 507,515.62643 503.14603,517.95471 502.43257,519.1091 C 502.05922,519.7132 502.93416,519.43402 504.37688,518.48872 C 505.81959,517.54341 507,516.5809 507,516.34981 z M 522.06009,504.7692 C 530.94269,497.94007 554.64645,474.06225 561.73286,464.80508 C 563.96645,461.88729 570.85439,450.95 577.03939,440.5 C 585.85108,425.61201 588.90328,419.46286 591.14242,412.08719 C 594.11333,402.30107 594.68832,398 593.02568,398 C 591.93884,398 589.01884,403.17906 588.96607,405.20034 C 588.94741,405.91515 588.06268,408.3 587,410.5 C 585.93732,412.7 585.05259,414.86928 585.03393,415.32063 C 584.97465,416.75439 574.80342,437.29776 571.57715,442.5 C 569.87169,445.25 567.91806,448.4 567.23577,449.5 C 566.55347,450.6 565.53085,452.58244 564.96327,453.90542 C 564.3957,455.2284 561.35927,459.56501 558.21566,463.54232 C 555.07205,467.51963 550.58108,473.44482 548.23574,476.70941 C 545.8904,479.974 538.0154,488.10113 530.73574,494.76969 C 514.8121,509.35661 506.40798,517.28542 510.5,513.86096 C 512.15,512.48013 517.35204,508.38884 522.06009,504.7692 z M 359,472.94748 C 376.21793,470.24576 391.53217,465.60962 395.5,461.89769 C 398.82079,458.79107 401.97615,451.06075 402.04389,445.86579 C 402.06803,444.0146 402.78258,440.7 403.63178,438.5 C 404.48097,436.3 405.86731,432.20203 406.71253,429.3934 C 408.20828,424.4231 408.18215,424.15311 405.73378,419.27851 C 404.35025,416.52396 402.91523,412.89052 402.54485,411.20421 C 402.17448,409.5179 401.22537,407.602 400.43572,406.94665 C 399.64607,406.2913 398.99409,405.24771 398.98686,404.62756 C 398.97964,404.0074 393.46714,392.54388 386.73686,379.15307 L 374.5,354.80615 L 368.51224,352.81081 C 365.06229,351.66117 361.18823,351.03233 359.37168,351.32711 C 355.00224,352.03617 349.05988,350.53051 347.5133,348.32245 C 346.77783,347.27242 343.10941,345.62572 338.99455,344.49851 C 330.63566,342.2087 329.09201,340.19653 330.75328,333.75585 C 331.97388,329.0236 330.51759,327.57883 325.26881,328.31477 C 323.19597,328.60541 314.975,329.57439 307,330.46806 C 299.025,331.36174 290.25,332.56054 287.5,333.13208 C 282.30267,334.21224 253.54329,333.75044 246.70208,332.47697 C 243.08158,331.80302 242.93043,331.88048 243.46625,334.135 C 243.77539,335.43575 244.49395,338.75 245.06305,341.5 C 245.63215,344.25 246.50618,348.3 247.00534,350.5 C 248.1743,355.65212 248.15173,377.15949 246.97122,383 C 241.27801,411.16698 240.09133,421.39206 241.98502,425.96384 C 243.03845,428.50705 248.62126,432.80438 255,435.98204 C 256.375,436.66702 259.75,438.7052 262.5,440.51133 C 265.25,442.31746 270.80124,445.75378 274.83609,448.1476 C 278.87093,450.54142 283.82093,453.49755 285.83609,454.71677 C 294.08911,459.71009 305.32406,465.11229 311.22555,466.92502 C 318.33507,469.10882 329.78806,472.47656 335,473.91589 C 338.59147,474.9077 349.24789,474.47771 359,472.94748 z M 756,440.93808 C 761.225,439.81535 767.50646,438.46603 769.95881,437.93957 C 772.41115,437.41312 774.81788,436.58212 775.30709,436.09291 C 775.8264,435.5736 771.71126,430.27115 765.41886,423.35171 C 754.94019,411.82885 752.14093,409.25623 753.19066,412.11355 C 755.76435,419.11899 757.13795,425.31424 756.59613,427.47301 C 756.18745,429.10131 753.5716,431.75785 749.47508,434.70482 C 743.14396,439.25932 741.73214,441.32174 744.25,442.33772 C 746.11722,443.09116 745.80911,443.12786 756,440.93808 z M 413.07442,386 C 414.13331,368.90614 413.60308,350.02843 411.92919,345.22672 C 411.14819,342.98635 409.97921,342.21169 405.73329,341.12084 C 395.38766,338.46287 395.78344,338.39152 392.55682,343.49617 C 390.94013,346.05385 388.32477,348.81494 386.74491,349.63191 C 385.16505,350.44889 384.03316,351.42843 384.2296,351.80866 C 384.42604,352.1889 385.60756,354.75 386.8552,357.5 C 389.40748,363.12562 391.10123,366.56402 392.76638,369.5 C 394.70642,372.92065 401.88193,389.68139 402.55584,392.36648 C 402.90805,393.76979 403.82708,395.44152 404.59811,396.08143 C 405.36915,396.72133 406.01527,397.97729 406.03393,398.87244 C 406.05259,399.7676 406.93732,402.3 408,404.5 C 409.06268,406.7 410.00753,409.4 410.09968,410.5 C 410.47527,414.98349 412.11619,401.46887 413.07442,386 z M 594.36163,395.5 C 593.67875,393.72046 598.31748,393.40981 602.39932,394.96172 C 604.65832,395.82059 605.2986,395.47219 608.3864,391.70394 C 612.48561,386.70139 615,377.35201 615,367.11226 C 615,361.39097 614.65325,360.02294 612.75,358.23529 C 610.06408,355.7125 604.26669,354.38664 597.75,354.80479 C 592.37497,355.14969 591.09899,357.5469 595.75,358.56223 C 597.2625,358.89242 599.625,359.53941 601,360 C 602.375,360.46059 604.7928,361.12146 606.37289,361.46861 C 609.09236,362.06608 609.14576,362.17554 607.37289,363.51809 C 605.59211,364.86664 605.62295,364.94361 608,365.0832 C 609.7625,365.18669 609.32,365.46782 606.5,366.03616 C 604.3,366.47955 599.86899,366.58415 596.65331,366.2686 C 591.05232,365.71899 589.07464,366.47883 589.01531,369.20321 C 588.98749,370.48091 598.19217,374 601.56202,374 C 606.97332,374 610.1881,375.65526 609.81934,378.25161 C 609.40207,381.1895 606.19821,381.62212 599.96267,379.58258 C 594.51534,377.80085 587.43198,377.49203 586.50263,378.99575 C 585.6342,380.40089 589.38535,381.75475 597.33334,382.90474 C 604.32376,383.91617 607,385.21254 607,387.58726 C 607,390.08597 603.50131,391.04105 598.34056,389.95114 C 587.81874,387.72902 585,387.61285 585,389.40133 C 585,390.31512 585.7875,391.31445 586.75,391.62206 C 591.48114,393.13411 592.98058,394.31847 591.86523,395.66238 C 590.99855,396.70668 591.21366,397 592.84617,397 C 594.29405,397 594.76018,396.53862 594.36163,395.5 z M 579.01777,374.47859 C 579.71223,373.64181 580.46099,371.27931 580.68167,369.22859 C 580.90236,367.17786 581.93381,363.85705 582.9738,361.84901 C 584.01379,359.84096 584.6181,357.95144 584.31672,357.65006 C 584.01534,357.34868 584.23073,355.77688 584.79536,354.15718 L 585.82196,351.21227 L 578.09411,348.15851 C 573.84379,346.47894 565.67135,342.53553 559.93313,339.39538 C 540.86325,328.95969 517.87092,317.97025 512.14891,316.55637 C 509.04201,315.78868 504.025,314.63718 501,313.9975 C 488.55971,311.3668 475.02704,304.80888 464,296.06732 C 461.525,294.10529 457.98346,291.43408 456.12992,290.13128 L 452.75984,287.76256 L 432.49966,297.63128 C 416.42465,305.46141 412.46051,307.77495 413.30942,308.831 C 413.89788,309.56306 414.71241,312.26306 415.11949,314.831 C 416.18011,321.52159 418.99909,332.35956 419.92513,333.30695 C 420.68237,334.08165 423.47784,334.86472 440,338.93035 C 444.125,339.9454 450.65,341.74777 454.5,342.93563 C 458.35,344.12349 465.1,345.98529 469.5,347.07297 C 473.9,348.16064 481.1,349.96141 485.5,351.07467 C 489.9,352.18794 496.2,353.71234 499.5,354.46222 C 502.8,355.2121 507.075,356.33835 509,356.96499 C 510.925,357.59163 514.525,358.50352 517,358.9914 C 525.52636,360.67217 535.36507,363.04706 539.92689,364.52555 C 542.4421,365.34073 550.575,367.84502 558,370.09064 C 565.425,372.33625 572.625,374.549 574,375.00784 C 577.5197,376.18239 577.61181,376.17267 579.01777,374.47859 z M 478.17138,337.25 C 476.52035,334.03606 478.93619,323.27271 481.91332,320.57845 C 484.80344,317.96292 488.42772,318.86979 488.82193,322.30712 C 489.11929,324.89994 485.80128,334.85127 483.67291,337.75 C 482.34007,339.56526 479.21483,339.28122 478.17138,337.25 z M 606.29269,322 C 606.26998,304.67259 605.84242,297.97704 604.08961,287.5 C 600.28461,264.75655 593.97859,243.75047 586.70102,229.57659 C 582.64205,221.67129 582.55478,221.28792 582.58615,211.5 C 582.61197,203.44276 583.03693,200.57719 584.77356,196.75 C 587.67048,190.36577 586.76609,190.70261 583.4311,197.25 C 578.42925,207.06981 579.07155,218.02826 585.27409,228.69406 C 588.78426,234.73012 595.768,255.12661 598.90359,268.5 C 603.59895,288.52584 605.34075,307.60668 604.60893,331 C 604.18804,344.45386 604.32266,347.92198 605.19116,346 C 605.92133,344.38414 606.3109,335.89637 606.29269,322 z M 373.5,344 C 373.83992,343.45 376.04673,343 378.40403,343 C 383.1015,343 384.82144,341.64706 386.94289,336.28316 C 387.64265,334.51389 388.84176,332.54629 389.60759,331.91071 C 391.27741,330.52488 391.41147,326.1872 389.90414,322.3151 L 388.80829,319.5 L 387.28217,321.75 C 385.49944,324.37834 381.22915,324.76072 380.31328,322.37402 C 379.97011,321.47973 380.25023,319.1969 380.93577,317.30107 C 381.91213,314.60101 381.92226,313.22654 380.98254,310.95786 C 380.09628,308.81822 380.06568,307.25036 380.8654,304.95628 L 381.94792,301.85095 L 375.49592,298.92548 C 370.03806,296.45077 367.76934,295.99883 360.77196,295.99241 C 343.32951,295.97641 328.45802,292.92224 318.5,287.31098 C 314.25012,284.91621 287.54846,271.67735 282.5,269.46195 C 280.85,268.73788 275.45,266.32193 270.5,264.09317 C 250.07087,254.89486 237.13959,253.86785 214.02743,259.60811 C 206.03735,261.59257 197.925,264.1569 196,265.30662 C 190.26375,268.73264 185,273.23951 185,274.72492 C 185,275.48953 186.19797,278.22671 187.66215,280.80756 C 189.12634,283.3884 192.0233,288.875 194.09984,293 C 198.69928,302.13665 208.17568,311.8938 215.5,315.03416 C 222.01268,317.82653 235.67357,321.92768 244.5,323.74029 C 255.17203,325.93191 274.51351,327.10278 282,326.01042 C 292.47739,324.48165 301.52502,323.07981 308.75,321.86579 C 312.4625,321.24197 319.775,320.69075 325,320.64084 C 336.19839,320.53389 343.04221,322.68741 349.6698,328.40361 C 351.96318,330.38162 354.14619,332 354.52093,332 C 354.89566,332 358.36154,334.925 362.22287,338.5 C 368.88412,344.66729 372.11402,346.24256 373.5,344 z M 342.96471,304.75 C 341.86146,302.9625 341.08058,300.375 341.2294,299 C 341.44551,297.00342 342.12918,296.43878 344.62457,296.196 C 348.59538,295.80966 351,298.13885 351,302.37143 C 351,308.59103 346.21044,310.00881 342.96471,304.75 z M 593.04923,339.75 L 596.96395,336.5 L 596.92577,321.5 C 596.85181,292.43481 593.35929,267.82924 587.39435,254.34887 C 586.62746,252.61575 586,250.86422 586,250.45658 C 586,249.70996 579.75895,234.43261 577.74528,230.25 C 577.1495,229.0125 575.95058,228.00415 575.08102,228.00923 C 574.21146,228.01431 557.59595,235.88931 538.15766,245.50923 C 518.71938,255.12915 502.51938,263.00587 502.15766,263.01305 C 501.79595,263.02023 496.55,265.52773 490.5,268.58527 C 484.45,271.6428 475.04004,276.08562 469.58898,278.4582 L 459.67796,282.77197 L 464.58898,286.29449 C 467.29004,288.23187 471.75,291.4333 474.5,293.40876 C 480.59214,297.78506 488.79431,301.69166 493.78815,302.59549 C 495.82967,302.96499 498.68045,303.86421 500.12322,304.59377 C 501.56598,305.32332 502.99833,305.66833 503.30621,305.36045 C 504.13136,304.53531 512.58137,307.27643 522.65113,311.63582 C 524.38425,312.38612 526.40925,313.00219 527.15113,313.00488 C 528.92064,313.01127 556.58011,326.87746 565.33604,332.14765 C 571.32955,335.75514 586.03262,342.63716 588.31726,342.9044 C 588.76675,342.95698 590.89614,341.5375 593.04923,339.75 z M 596.52646,341.19313 C 596.21857,340.88524 595.41167,341.19249 594.73333,341.87591 C 593.75307,342.86353 593.86793,342.97839 595.29313,342.43571 C 596.27935,342.06018 596.83435,341.50102 596.52646,341.19313 z M 410,329.7101 C 410,329.00065 409.325,325.8287 408.5,322.66131 C 406.47759,314.89677 406.5612,310.35496 408.75,309.0801 C 409.7125,308.51949 410.00724,308.04713 409.40499,308.03041 C 408.80273,308.01368 407.45273,308.94788 406.40499,310.10641 C 405.35724,311.26493 402.8125,313.07408 400.75,314.12673 C 396.52278,316.28421 396.41163,316.65607 398.5,321.65424 C 399.325,323.62875 400,326.08072 400,327.10307 C 400,328.31718 400.95382,329.17226 402.75,329.56842 C 404.2625,329.90201 405.95,330.32505 406.5,330.50852 C 408.68521,331.23747 410,330.93754 410,329.7101 z M 406.5993,301.30492 C 424.62939,291.65043 429.9841,288.82764 436.11879,285.74341 L 442.73758,282.41579 L 438.61879,280.76523 C 436.35345,279.85742 432.59123,278.62253 430.25828,278.02102 C 424.56969,276.55432 416.08125,269.31992 406.58946,257.84889 C 402.33476,252.707 397.00734,247.02355 394.75074,245.21899 L 390.64784,241.93798 L 387.07392,245.36306 C 385.10826,247.24685 380.8,250.29831 377.5,252.14407 C 371.86576,255.29542 370.92087,255.5 362,255.5 C 347.54956,255.5 342.19829,253.09389 329.5,240.88692 C 324,235.59972 318.4875,230.74639 317.25,230.10173 C 313.31861,228.05374 314.85496,222 319.3061,222 C 320.40201,222 325.52385,226.38392 331.3561,232.31392 C 344.25509,245.42909 349.93475,248.51375 361,248.4137 C 370.48994,248.32789 374.53645,246.46258 381.02464,239.18299 C 385.47888,234.18545 385.82561,233.46478 384.48727,231.98593 C 383.66927,231.08205 382.97148,229.02795 382.93661,227.42126 C 382.88127,224.87077 382.76781,224.76024 382.04267,226.55042 C 380.884,229.41085 375.14481,233.57794 369.06147,235.97577 C 362.43386,238.58813 353.9113,238.59655 348.18181,235.9964 C 344.42187,234.29007 343.90475,233.67883 344.18181,231.26836 C 344.43192,229.09228 345.08575,228.43255 347.23781,228.18475 C 348.7436,228.01137 350.98123,228.57387 352.21031,229.43475 C 361.11921,235.67479 378.17485,224.24746 381.86515,209.56592 C 382.42725,207.32967 383.13789,204.29529 383.44434,202.82286 C 384.35096,198.4668 390.987,195.8918 396.20295,197.87211 C 404.31668,200.95259 406.19108,201.23749 407.79461,199.63396 C 409.08314,198.34543 409.15177,197.64449 408.17201,195.77951 C 407.51336,194.52578 406.10664,190.35 405.04595,186.5 C 403.32612,180.25747 403.27339,179.1858 404.55872,176.59636 C 405.35142,174.99936 406,172.96199 406,172.06887 C 406,169.29916 408.92567,166.0859 414.3209,162.93002 C 417.21731,161.2358 418.6185,159.97324 417.5,160.06544 C 413.57254,160.3892 412.85988,160.00718 413.18045,157.75 C 413.5088,155.43803 418.12779,152.54712 423.06084,151.56611 C 425.09768,151.16105 426.15143,149.76689 428.21057,144.7528 C 431.3994,136.98784 435.41483,118.41561 434.39267,116.1592 C 433.97928,115.24664 433.38432,111.62125 433.07053,108.10277 C 432.28326,99.27527 431.16627,98.724667 421.19724,102.25 C 416.92015,103.7625 412.46614,105 411.29945,105 C 406.79507,105 396.95101,101.09375 392.72161,97.628079 C 387.67105,93.489529 387.34533,93.440536 379.0353,95.569469 C 372.34614,97.283152 368.75823,96.89924 362.6738,93.818762 C 358.37142,91.640517 356.98323,92.197956 354.43406,97.127507 C 352.47202,100.92167 352.57114,101.44197 356,105.34722 C 360.50525,110.47842 360.04923,113.48877 353.69254,120.57959 C 350.77343,123.83581 347.7794,127.99736 347.03913,129.82746 C 344.60154,135.85371 337.30585,138.22729 329.8444,135.4216 C 321.80587,132.39891 319.39066,132.45549 316.10263,135.74353 C 314.32666,137.51949 312.87891,140.25578 312.47514,142.59954 C 311.74686,146.82709 307.35496,158.77985 305.83868,160.66097 C 305.24834,161.39337 305.28996,162.06117 305.95144,162.46999 C 307.49329,163.4229 307.22886,166.72109 305.38499,169.53518 C 303.28708,172.737 298,173.06371 298,169.99153 C 298,168.23222 297.75145,168.13827 295.99654,169.23423 C 293.50453,170.79052 291.07667,169.49122 289.15467,165.5727 C 286.1963,159.54129 290.66643,152.1153 297.38486,151.90032 C 299.80273,151.82295 300.05234,151.65432 298.5,151.14693 C 297.4,150.78739 295.11705,149.73682 293.42678,148.81234 C 290.36976,147.14033 290.34441,147.14694 288.62024,150.06573 C 287.5223,151.92441 286.06456,153 284.64346,153 C 278.85039,153 278.36885,146.81125 283.70257,140.90746 C 287.18082,137.05745 287.65033,136.84807 291.45257,137.45135 C 294.31103,137.90489 296.80201,139.32828 299.93223,142.29677 C 303.60581,145.78055 303.90535,145.93058 301.68223,143.17327 C 300.207,141.34358 299,139.48063 299,139.0334 C 299,138.58617 296.93272,137.24852 294.40605,136.06084 C 289.85907,133.92351 289.77472,133.92068 286.15605,135.78444 C 283.96557,136.91261 281.55532,139.36058 280.14336,141.89121 C 277.88725,145.93481 277.83656,146.45575 278.95496,154.10452 C 279.70598,159.24077 281.35113,164.65637 283.56159,169.26882 C 285.45272,173.21494 287.00855,177.13127 287.019,177.97179 C 287.05245,180.66206 292.9281,188.98567 296.19702,190.97362 C 300.09932,193.34675 301,192.85949 301,188.37524 C 301,182.11594 304.51966,178.91966 307.8,182.2 C 309.49841,183.89841 309.33645,195.15813 307.57907,197.55887 C 305.21086,200.79407 296.15023,200.18149 290.76118,196.42182 C 288.41753,194.78678 285.7132,191.88549 284.75155,189.97451 L 283.00311,186.5 L 282.94902,196 C 282.89993,204.62283 282.5997,206.09295 279.69747,211.92174 C 276.72011,217.90142 276.01813,218.59023 269.5,221.92795 C 265.65,223.8994 258.25476,228.33431 253.06614,231.7833 C 247.87751,235.23229 242.47751,238.30661 241.06614,238.61511 C 234.57384,240.03424 221.86326,244.66018 213.58653,248.61614 C 208.58894,251.0048 204.725,252.95239 205,252.94411 C 205.275,252.93584 209.55,252.19303 214.5,251.29342 C 225.09969,249.36706 247.44675,249.13741 256.93976,250.8573 C 260.48163,251.499 266.73472,253.6166 270.8355,255.56308 C 274.93629,257.50955 278.86251,258.883 279.56044,258.61518 C 280.25837,258.34736 281.43635,256.86188 282.17818,255.31412 C 283.2755,253.02462 284.17693,252.5 287.01347,252.5 L 290.5,252.5 L 290.22824,258.54136 L 289.95647,264.58271 L 299.22824,268.92366 C 304.32771,271.31119 313.45,275.6205 319.5,278.49991 C 337.58697,287.10815 341.41972,288 360.32679,288 C 373.12882,288 373.74763,288.09895 379.52757,291.07032 C 382.81241,292.759 387.16111,295.459 389.19136,297.07032 C 391.22161,298.68164 393.3381,300 393.89468,300 C 394.45125,300 395.71514,301.11086 396.70332,302.46858 C 397.69149,303.82629 398.76968,304.95129 399.0993,304.96858 C 399.42891,304.98586 402.80391,303.33721 406.5993,301.30492 z M 379.06816,179.4039 C 376.86009,177.54593 376.04099,176.04511 376.18728,174.12528 C 376.47936,170.29201 375.34035,168.98751 372.21123,169.57156 C 370.48163,169.8944 368.30098,169.33119 366.18834,168.01601 C 363.38797,166.2727 362.9248,165.45615 363.18834,162.7272 C 363.49337,159.56861 363.59567,159.50574 368,159.76982 C 370.475,159.91821 375.731,160.02988 379.68,160.01795 C 383.62901,160.00603 388.05459,160.45045 389.51463,161.00556 C 392.16131,162.01183 392.16719,162.03801 391.48182,169.75742 C 391.10374,174.01584 390.15529,178.5125 389.37415,179.75 C 387.42589,182.83647 382.96969,182.68682 379.06816,179.4039 z M 396.04992,161.09327 C 395.07372,159.26922 393.83441,159.03674 383.73226,158.78259 L 372.5,158.5 L 372.5,155.5 L 372.5,152.5 L 382.5,151.73744 C 394.16002,150.8483 398.08078,151.32679 400.43305,153.92602 C 402.92283,156.67719 402.20442,162.39972 399.31766,162.81068 C 397.93056,163.00816 396.7398,162.38234 396.04992,161.09327 z M 135.73411,273.37387 L 137.96821,272.77505 L 135.98411,270.25267 C 132.84291,266.25928 133.44857,262.09565 138.1195,255.57277 C 141.75333,250.49818 142.10702,249.53029 141.1195,247.36293 C 138.52011,241.65789 140.71812,234 144.95499,234 C 148.58663,234 150.39221,239.12127 147.75,241.92768 C 146.71616,243.02578 147.47065,243.1481 152.11309,242.63504 C 162.5295,241.48387 167.15235,238.45088 183.12407,222.28912 C 198.03084,207.20499 206.18101,196.39917 211.63253,184.49148 L 214.3212,178.61865 L 209.27766,173.9811 C 203.56486,168.72816 195.28152,163 193.39818,163 C 191.84675,163 174.66635,181.37182 170.74076,187.22865 C 169.16617,189.57789 166.17405,193.525 164.09161,196 C 162.00917,198.475 157.71946,204.775 154.55892,210 C 146.89013,222.67802 145.21133,224.99727 136.20242,235.35931 C 131.96609,240.23194 127.375,245.72686 126,247.57025 C 124.625,249.41363 121.36452,253.3481 118.75449,256.31349 C 116.14446,259.27889 113.7429,263.03551 113.41769,264.66155 C 112.88003,267.34986 113.17436,267.76517 116.6632,269.24112 C 126.57778,273.43546 131.51368,274.5051 135.73411,273.37387 z M 162.5,270.17967 C 166.02913,268.04706 173.84992,265.45932 179.52046,264.54794 C 184.78015,263.70259 185.40489,263.25185 188.24347,258.25444 C 192.17807,251.32745 207.02885,242.03389 227.71987,233.55024 C 231.14079,232.14761 234.52246,231 235.23468,231 C 235.94689,231 238.20882,230.1 240.26118,229 C 242.31355,227.9 244.70813,227 245.58248,227 C 246.67078,227 245.56795,224.9839 242.0861,220.60821 C 239.28875,217.09272 237,213.80129 237,213.29392 C 237,212.78655 233.19843,216.00036 228.55207,220.43571 C 212.07245,236.16693 196.26314,249.5894 189.64812,253.46606 C 187.22128,254.88829 182.87056,256.66543 179.97984,257.41527 C 176.30084,258.36959 174.01657,259.68256 172.366,261.7916 C 169.82601,265.03709 160.88678,270.52665 156.93024,271.27065 L 154.5,271.72764 L 157,271.86008 C 158.375,271.93292 160.85,271.17674 162.5,270.17967 z M 443.17548,269 C 447.89692,252.41234 448.68504,228.96758 444.57423,227.39011 C 443.0827,226.81776 433.96626,231.44793 427.62206,236 C 422.40437,239.74378 419.39351,242.63073 414.29596,248.77771 L 411.09192,252.64137 L 418.29596,259.71382 C 429.56486,270.7769 441.41117,275.19849 443.17548,269 z M 155.82797,263.0865 C 165.26198,258.34317 166.92123,256.69749 164.75629,254.23124 C 163.92044,253.27906 162.91768,251.45496 162.52794,250.17768 C 162.06266,248.65286 161.30333,248.05336 160.31676,248.43194 C 159.49035,248.74907 157.731,249.23161 156.4071,249.50426 C 155.08319,249.77692 152.875,250.23357 151.5,250.51905 C 150.125,250.80453 149,251.70064 149,252.5104 C 149,253.32016 147.425,256.04606 145.5,258.56794 C 143.575,261.08983 142,263.49996 142,263.92378 C 142,264.67308 145.72084,266.79635 147.2722,266.93232 C 147.69691,266.96954 151.547,265.23892 155.82797,263.0865 z M 181.90009,248.25 C 184.98004,246.7375 189.47721,244.0375 191.8938,242.25 C 194.31039,240.4625 196.80586,239 197.43927,239 C 199.28453,239 215.67964,223.94692 223.07931,215.45873 C 224.49793,213.83143 227.08231,210.86915 228.82238,208.87588 L 231.98614,205.25176 L 228.17172,198.37588 C 226.07379,194.59415 223.22785,189.8616 221.8474,187.85911 L 219.33749,184.21822 L 215.1424,192.35911 C 212.8351,196.8366 208.89087,203.32672 206.37743,206.78161 C 200.53951,214.80623 180.88333,236.21839 175.56876,240.34258 C 172.41623,242.78899 171.5,244.17556 171.5,246.5 C 171.5,249.21593 172.83235,250.72921 175.40009,250.92971 C 175.89513,250.96837 178.82013,249.7625 181.90009,248.25 z M 397.73039,217.14429 C 398.90636,216.51493 400.76029,216 401.85023,216 C 403.4474,216 410,209.41294 410,207.80737 C 410,207.58472 408.3125,207.39941 406.25,207.39556 C 404.1875,207.39171 399.94001,206.92358 396.81112,206.35526 L 391.12225,205.32194 L 389.92693,210.41097 C 389.26951,213.20994 388.12801,216.69387 387.39027,218.15303 L 386.04893,220.80607 L 390.82059,219.54733 C 393.44501,218.85502 396.55441,217.77365 397.73039,217.14429 z M 242.56847,205.70704 C 241.18475,203.34591 239.02828,199.56476 237.77631,197.30449 C 232.15868,187.16256 229.0091,182.19658 225.63135,178.15539 C 223.63411,175.76585 222,173.47061 222,173.05486 C 222,172.63911 219.8625,170.92218 217.25,169.23947 C 214.6375,167.55675 208,162.99387 202.5,159.09973 C 197,155.20559 191.9926,152.01509 191.37244,152.00974 C 190.75229,152.00438 189.68469,151.325 189,150.5 C 186.8764,147.94121 182.6733,148.70184 179.32978,152.25 C 176.17455,155.59835 168.13213,167.58714 164.5362,174.3027 C 160.19887,182.40286 148.15119,206.18214 148.62431,205.70902 C 148.89866,205.43468 151.90792,200.99277 155.31156,195.83812 C 165.19443,180.87098 171.92995,172.19309 180.56429,163.30308 C 190.48348,153.09017 191.55606,152.91929 202.18578,159.85844 C 211.97025,166.24581 228.28419,181.88988 230.99053,187.48043 C 232.15077,189.87718 233.7084,192.34303 234.45192,192.9601 C 235.19544,193.57716 236.0895,195.22047 236.43873,196.61189 C 237.03589,198.99119 243.81562,210 244.68373,210 C 244.90405,210 243.95218,208.06817 242.56847,205.70704 z M 416.28949,196.999 C 415.57076,194.25058 414.98005,194.48822 415.22334,197.42791 C 415.33386,198.76326 415.73657,199.66281 416.11826,199.42691 C 416.49995,199.19101 416.577,198.09846 416.28949,196.999 z M 415.3981,186.25 C 414.38171,177.68445 411,172.08934 411,178.97325 C 411,181.4312 414.72364,191 415.68014,191 C 415.83502,191 415.7081,188.8625 415.3981,186.25 z M 591.21923,188.1577 C 591.48846,188.96538 591.86769,188.78718 592.30503,187.6475 C 592.67466,186.68424 592.57068,186.1473 592.07396,186.45429 C 591.57723,186.76129 591.01841,186.55522 590.83212,185.99636 C 590.64584,185.43751 589.86011,185.9972 589.08605,187.24013 C 587.82453,189.26582 587.8407,189.36614 589.2421,188.20826 C 590.4727,187.1915 590.89358,187.18074 591.21923,188.1577 z M 274.9254,168.86061 C 273.35191,165.92052 272.06795,161.46578 271.0053,155.25972 C 269.83249,148.41033 271.58275,141.61825 276.00258,135.86727 C 281.50604,128.70626 282.7074,128.04706 290.29966,128.02224 C 297.3625,127.99914 301.13963,129.28683 304.32122,132.80245 C 306.12351,134.79396 306.17216,134.77521 310.54254,130.40483 C 314.55456,126.39281 315.38586,126 319.86448,126 C 322.62753,126 326.69125,126.86653 329.1408,127.97804 C 335.77277,130.98737 337.57353,130.63864 340.64596,125.75 C 342.11504,123.4125 344.82068,119.52279 346.6585,117.1062 C 350.66083,111.84345 350.74953,110.84044 347.5,107.59091 C 342.78039,102.8713 344.67644,94.223169 351.85001,87.75 C 356.90789,83.185951 360.04696,82.959536 367.10434,86.649737 C 372.79124,89.623337 376.5526,89.868542 381.16715,87.566499 C 386.11593,85.097725 389.79806,85.594775 394.39701,89.352394 C 403.0602,96.430747 410.92009,98.22627 417.70034,94.675836 C 419.82589,93.562808 423.3014,93 428.04913,93 C 434.75652,93 435.37659,92.808374 438.09879,89.894245 C 439.69446,88.186079 441,86.224425 441,85.535013 C 441,84.845601 439.70823,81.855691 438.1294,78.890768 C 434.18602,71.485375 433.5984,67.928171 435.04876,60.241572 C 436.29189,53.653268 436.29085,53.646928 433.59062,51.32429 C 431.44938,49.48247 429.70648,48.998842 425.19424,48.994423 C 422.06241,48.991356 417.7,48.49327 415.5,47.887567 C 410.47497,46.504075 401.18676,38.691236 399.35492,34.307015 C 398.59268,32.482716 396.10848,29.642334 393.83447,27.995054 C 389.91464,25.155543 389.1933,25 379.94458,25 C 370.27929,25 370.15095,24.968017 366.04254,21.535545 C 363.76187,19.630094 360.23179,17.770863 358.19793,17.40392 C 356.16407,17.036976 353.80218,16.378143 352.94929,15.939846 C 349.88484,14.365044 342.17825,18.063403 334.87134,24.615371 C 327.09766,31.585874 324.94786,32.441567 312.5,33.519905 C 308.1,33.901069 303.15,34.891395 301.5,35.720627 C 295.07096,38.951638 290.01892,45.820439 289.98824,51.372124 C 289.98177,52.542456 288.96927,56.362087 287.73824,59.860194 L 285.5,66.220387 L 273.5,72.360194 C 257.5616,80.515084 256.86805,81.660944 256.58328,100.30932 C 256.41275,111.47666 256.06228,114.11357 254.29847,117.5 C 253.15261,119.7 251.95316,123.61661 251.63303,126.20357 C 251.12836,130.28189 251.39665,131.31794 253.65128,133.99742 C 255.08145,135.69707 257.93717,137.94762 259.99734,138.99864 C 264.38192,141.23549 264.9656,142.87137 264.99293,153 C 265.0158,161.47097 266.61943,164.95445 272.21694,168.69235 C 276.32829,171.43782 276.30387,171.43631 274.9254,168.86061 z M 266.81591,133.25 C 265.40885,131.7375 263.99551,129.375 263.67514,128 C 261.66461,119.37093 271.78626,107.18626 276.8,112.2 C 278.84174,114.24174 278.13145,116.88066 275.12118,118.43733 C 272.69829,119.69026 271,121.81023 271,123.58179 C 271,123.8118 272.05526,124 273.34501,124 C 275.94093,124 279,126.80964 279,129.19388 C 279,130.0389 278.06734,131.91597 276.92742,133.36514 C 274.15415,136.89078 270.16055,136.8453 266.81591,133.25 z M 280.08981,117.81282 C 276.28959,108.30641 276.2023,107.76256 277.74844,103.22489 C 278.89157,99.869979 280.31182,98.171852 283.86851,95.907412 C 288.12451,93.19774 289.10805,92.986536 296,93.302319 C 300.72176,93.518666 305.43515,94.447236 308.72403,95.809039 L 313.94807,97.972116 L 316.04683,95.736058 C 317.69661,93.978344 318.02305,92.69779 317.57279,89.75 C 315.56325,76.593748 315.48558,77.668507 318.40556,78.226697 C 319.85875,78.504493 321.27641,78.361784 321.55589,77.909565 C 322.15471,76.940655 325.20241,77.908123 326.18356,79.37858 C 326.55952,79.942035 327.17277,83.664643 327.54632,87.651043 C 328.45489,97.346769 326.485,100.83048 318.57325,103.51976 L 313.09885,105.38057 L 305.04593,102.57727 C 292.32007,98.147261 284,100.47478 284,108.46482 C 284,110.93978 284.5885,112.24459 286.05993,113.03207 C 287.5111,113.80872 288.02827,114.92734 287.80993,116.81726 C 287.55397,119.03286 286.93533,119.55447 284.25719,119.81282 C 281.64516,120.0648 280.83453,119.67576 280.08981,117.81282 z M 328.53357,86.75 C 328.25607,85.5125 327.91,80.735152 327.76451,76.13367 C 327.54163,69.083978 327.77486,67.590079 329.24654,66.640965 C 330.5614,65.79299 331.49396,65.827392 333.01958,66.780152 C 334.51329,67.712993 335.57477,67.762762 337.05707,66.969456 C 338.16313,66.377514 341.19026,66.029728 343.78404,66.196599 C 348.03526,66.470101 348.52994,66.758121 348.80381,69.119297 C 349.12192,71.86192 347.26349,72.956029 342.2353,72.986345 C 339.51878,73.002724 336.00927,78.197909 336.00374,82.211045 C 335.99991,84.989028 332.6481,89 330.33049,89 C 329.61968,89 328.81106,87.9875 328.53357,86.75 z M 371.96189,81.75 C 369.50785,80.5125 367.35034,78.690882 367.16742,77.701961 C 366.3464,73.26319 372.60659,71.268812 375.18259,75.148479 C 376.403,76.986508 377.03474,77.155155 379.55456,76.315612 C 383.038,75.15502 383.83213,72.576974 381.5,70 C 379.54727,67.842258 379.85943,64.5 382.0137,64.5 C 382.83116,64.5 384.08802,63.7125 384.8067,62.75 C 386.41275,60.599112 389.32952,60.487195 391.00994,62.51198 C 392.10297,63.829003 392.83643,63.555529 396.69823,60.391078 C 400.81007,57.021734 401.50506,56.794072 406.27868,57.252756 C 413.18868,57.91672 417,62.124659 417,69.089781 C 417,75.402405 413.46793,77.87317 406.35211,76.538234 C 403.2969,75.965073 402.91559,75.561833 403.18905,73.193253 C 403.44636,70.964606 404.06065,70.445943 406.75,70.186642 C 412.3178,69.649805 410.18154,65 404.3671,65 C 401.58798,65 400.04676,66.18818 393.38697,73.464969 C 383.32031,84.464249 379.93807,85.772154 371.96189,81.75 z M 368.41844,63.031147 C 362.88541,60.792803 356.79914,48.931019 358.86135,44.404953 C 359.75806,42.436899 360.63103,41.939484 362.75845,42.184393 C 365.25132,42.471371 365.50977,42.888613 365.60776,46.78414 C 365.73884,51.99558 369.17257,56.351379 372.43304,55.442244 C 381.79177,52.832703 382.50659,51.042781 376.44451,45.397504 C 370.69327,40.041694 370.71072,37.437201 376.49656,37.632969 C 379.74303,37.742816 380.99999,38.438373 383.72505,41.632969 C 386.69679,45.116742 386.99776,46.043231 386.76186,50.981142 C 386.50113,56.438556 386.47835,56.474278 381.5,59.232668 C 372.5286,64.203513 371.82294,64.408414 368.41844,63.031147 z "
     style="fill:#000000"
     id="path2177" />
</svg>
