<?xml version="1.0" encoding="UTF-8" standalone="no"?>
<svg xmlns="http://www.w3.org/2000/svg" xmlns:xlink="http://www.w3.org/1999/xlink" width="256" height="178.91586">
  <defs>
    <path id="B" fill="#c4c5c2" stroke="#888a85" stroke-miterlimit="2" d="M280.5-445.5c-2.27083 0-4.10991 1.55028-4.71875 3.625-.69323-.36383-1.44451-.625-2.28125-.625-2.76 0-5.00001 2.23999-5 5 0 .57893.16252 1.1077.34375 1.625-1.37347.77074-2.34375 2.189-2.34375 3.875 0 2.484 2.016 4.50001 4.5 4.5h19c2.48399 0 4.5-2.016 4.5-4.5 0-1.686-.97028-3.10426-2.34375-3.875.18124-.51729.34375-1.04608.34375-1.625 0-2.76-2.24-4.99999-5-5-.83674 0-1.58802.26117-2.28125.625-.60884-2.07472-2.44792-3.625-4.71875-3.625z"/>
    <path id="D" fill="#c4c5c2" d="M283.99999925-440.49999663c0 1.93299363-1.56700713 3.50000075-3.50000075 3.50000075s-3.50000075-1.56700712-3.50000075-3.50000075c0-1.93299362 1.56700713-3.50000075 3.50000075-3.50000075s3.50000075 1.56700713 3.50000075 3.50000075z"/>
    <path id="F" fill="#c4c5c2" d="M271-438h20v9h-20z"/>
    <path id="G" fill="#c4c5c2" d="M273.99989625-431.99984563c0 1.65685064-1.34314812 2.99999875-2.99999875 2.99999875s-2.99999875-1.34314811-2.99999875-2.99999875c0-1.65685063 1.34314812-2.99999875 2.99999875-2.99999875s2.99999875 1.34314812 2.99999875 2.99999876z"/>
    <path id="H" fill="#c4c5c2" d="M291.00006925-437.50009663c0 1.93299363-1.56700713 3.50000075-3.50000075 3.50000075s-3.50000075-1.56700712-3.50000075-3.50000075c0-1.93299362 1.56700713-3.50000075 3.50000075-3.50000075s3.50000075 1.56700713 3.50000075 3.50000075z"/>
    <path id="J" fill="#c4c5c2" d="M276.99999925-437.49999663c0 1.93299363-1.56700713 3.50000075-3.50000075 3.50000075s-3.50000075-1.56700712-3.50000075-3.50000075c0-1.93299362 1.56700713-3.50000075 3.50000075-3.50000075s3.50000075 1.56700713 3.50000075 3.50000075z"/>
    <path id="L" fill="#c4c5c2" d="M280.46875-440.96875c-3.57938 0-6.46875 2.92063-6.46875 6.5 0 2.37068 1.34943 4.33779 3.25 5.46875h6.46875c1.90057-1.13096 3.25-3.12931 3.25-5.5 0-3.57938-2.92063-6.46875-6.5-6.46875z"/>
    <path id="O" fill="#888a85" fill-rule="evenodd" d="M292.9564-437.33396c-.002 2.68456-3.26926 3.71395-3.26926 3.71395s2.34874-1.62595 2.33685-3.70501l.93241-.009z"/>
  </defs>
  <defs>
    <radialGradient xlink:href="#a" id="Q" cx="23.9375" cy="42.6875" r="23.75956" fx="23.9375" fy="42.6875" gradientTransform="matrix(1 0 0 .24763 0 32.1168)" gradientUnits="userSpaceOnUse"/>
    <radialGradient xlink:href="#b" id="V" cx="24.006104" cy="32.997028" r="19.00016" fx="24.006104" fy="32.997028" gradientTransform="matrix(3.38508 0 0 2.13764 48.363102 -184.03815)" gradientUnits="userSpaceOnUse"/>
    <radialGradient xlink:href="#c" id="W" cx="2.9999995" cy="33.214287" r="3" fx="2.9999995" fy="33.214287" gradientTransform="matrix(0 -.75 1.33333 0 -40.28573 35.00001)" gradientUnits="userSpaceOnUse"/>
    <radialGradient xlink:href="#c" id="X" cx="2.9999995" cy="33.214287" r="3" fx="2.9999995" fy="33.214287" gradientTransform="matrix(0 -.75 1.33333 0 -88.28573 -30.49999)" gradientUnits="userSpaceOnUse"/>
    <radialGradient xlink:href="#d" id="ac" cx="20.913568" cy="47.045319" r="19.5" fx="20.913568" fy="47.045319" gradientTransform="matrix(1.3826 .00004 0 .1715 -6.729684 34.0972)" gradientUnits="userSpaceOnUse"/>
    <radialGradient xlink:href="#d" id="ad" cx="20.913568" cy="47.045319" r="19.5" fx="20.913568" fy="47.045319" gradientTransform="matrix(1.3826 .00004 0 .1715 -6.729684 34.0972)" gradientUnits="userSpaceOnUse"/>
    <radialGradient xlink:href="#d" id="ae" cx="20.913568" cy="47.045319" r="19.5" fx="20.913568" fy="47.045319" gradientTransform="matrix(1.3826 .00004 0 .1715 -6.729684 34.0972)" gradientUnits="userSpaceOnUse"/>
    <radialGradient xlink:href="#d" id="af" cx="20.913568" cy="47.045319" r="19.5" fx="20.913568" fy="47.045319" gradientTransform="matrix(1.3826 .00004 0 .1715 -6.729684 34.0972)" gradientUnits="userSpaceOnUse"/>
    <radialGradient xlink:href="#d" id="ag" cx="20.913568" cy="47.045319" r="19.5" fx="20.913568" fy="47.045319" gradientTransform="matrix(1.3826 .00004 0 .1715 -6.729684 34.0972)" gradientUnits="userSpaceOnUse"/>
    <radialGradient xlink:href="#d" id="ah" cx="20.913568" cy="47.045319" r="19.5" fx="20.913568" fy="47.045319" gradientTransform="matrix(1.3826 .00004 0 .1715 -6.729684 34.0972)" gradientUnits="userSpaceOnUse"/>
    <radialGradient xlink:href="#d" id="ai" cx="20.913568" cy="47.045319" r="19.5" fx="20.913568" fy="47.045319" gradientTransform="matrix(1.3826 .00004 0 .1715 -6.729684 34.0972)" gradientUnits="userSpaceOnUse"/>
    <radialGradient xlink:href="#d" id="aj" cx="20.913568" cy="47.045319" r="19.5" fx="20.913568" fy="47.045319" gradientTransform="matrix(1.3826 .00004 0 .1715 -6.729684 34.0972)" gradientUnits="userSpaceOnUse"/>
    <radialGradient xlink:href="#d" id="ak" cx="20.913568" cy="47.045319" r="19.5" fx="20.913568" fy="47.045319" gradientTransform="matrix(1.3826 .00004 0 .1715 -6.729684 34.0972)" gradientUnits="userSpaceOnUse"/>
    <radialGradient xlink:href="#d" id="al" cx="20.913568" cy="47.045319" r="19.5" fx="20.913568" fy="47.045319" gradientTransform="matrix(1.3826 .00004 0 .1715 -6.729684 34.0972)" gradientUnits="userSpaceOnUse"/>
    <radialGradient xlink:href="#d" id="am" cx="20.913568" cy="47.045319" r="19.5" fx="20.913568" fy="47.045319" gradientTransform="matrix(1.3826 .00004 0 .1715 -6.729684 34.0972)" gradientUnits="userSpaceOnUse"/>
    <radialGradient xlink:href="#d" id="an" cx="20.913568" cy="47.045319" r="19.5" fx="20.913568" fy="47.045319" gradientTransform="matrix(1.3826 .00004 0 .1715 -6.729684 34.0972)" gradientUnits="userSpaceOnUse"/>
    <radialGradient xlink:href="#d" id="ao" cx="20.913568" cy="47.045319" r="19.5" fx="20.913568" fy="47.045319" gradientTransform="matrix(1.3826 .00004 0 .1715 -6.729684 34.0972)" gradientUnits="userSpaceOnUse"/>
    <radialGradient xlink:href="#d" id="ap" cx="20.913568" cy="47.045319" r="19.5" fx="20.913568" fy="47.045319" gradientTransform="matrix(1.3826 .00004 0 .1715 -6.729684 34.0972)" gradientUnits="userSpaceOnUse"/>
    <radialGradient xlink:href="#d" id="aq" cx="20.913568" cy="47.045319" r="19.5" fx="20.913568" fy="47.045319" gradientTransform="matrix(1.3826 .00004 0 .1715 -6.729684 34.0972)" gradientUnits="userSpaceOnUse"/>
    <radialGradient xlink:href="#d" id="ar" cx="20.913568" cy="47.045319" r="19.5" fx="20.913568" fy="47.045319" gradientTransform="matrix(1.3826 .00004 0 .1715 -6.729684 34.0972)" gradientUnits="userSpaceOnUse"/>
    <radialGradient xlink:href="#d" id="as" cx="20.913568" cy="47.045319" r="19.5" fx="20.913568" fy="47.045319" gradientTransform="matrix(1.3826 .00004 0 .1715 -6.729684 34.0972)" gradientUnits="userSpaceOnUse"/>
    <radialGradient xlink:href="#d" id="at" cx="20.913568" cy="47.045319" r="19.5" fx="20.913568" fy="47.045319" gradientTransform="matrix(1.3826 .00004 0 .1715 -6.729684 34.0972)" gradientUnits="userSpaceOnUse"/>
    <radialGradient xlink:href="#d" id="au" cx="20.913568" cy="47.045319" r="19.5" fx="20.913568" fy="47.045319" gradientTransform="matrix(1.3826 .00004 0 .1715 -6.729684 34.0972)" gradientUnits="userSpaceOnUse"/>
    <radialGradient xlink:href="#d" id="av" cx="20.913568" cy="47.045319" r="19.5" fx="20.913568" fy="47.045319" gradientTransform="matrix(1.3826 .00004 0 .1715 -6.729684 34.0972)" gradientUnits="userSpaceOnUse"/>
    <radialGradient xlink:href="#d" id="aw" cx="20.913568" cy="47.045319" r="19.5" fx="20.913568" fy="47.045319" gradientTransform="matrix(1.3826 .00004 0 .1715 -6.729684 34.0972)" gradientUnits="userSpaceOnUse"/>
    <radialGradient xlink:href="#d" id="ax" cx="20.913568" cy="47.045319" r="19.5" fx="20.913568" fy="47.045319" gradientTransform="matrix(1.3826 .00004 0 .1715 -6.729684 34.0972)" gradientUnits="userSpaceOnUse"/>
    <radialGradient xlink:href="#d" id="ay" cx="20.913568" cy="47.045319" r="19.5" fx="20.913568" fy="47.045319" gradientTransform="matrix(1.3826 .00004 0 .1715 -6.729684 34.0972)" gradientUnits="userSpaceOnUse"/>
    <radialGradient xlink:href="#d" id="az" cx="20.913568" cy="47.045319" r="19.5" fx="20.913568" fy="47.045319" gradientTransform="matrix(1.3826 .00004 0 .1715 -6.729684 34.0972)" gradientUnits="userSpaceOnUse"/>
    <radialGradient xlink:href="#d" id="aA" cx="20.913568" cy="47.045319" r="19.5" fx="20.913568" fy="47.045319" gradientTransform="matrix(1.3826 .00004 0 .1715 -6.729684 34.0972)" gradientUnits="userSpaceOnUse"/>
    <radialGradient xlink:href="#d" id="aB" cx="20.913568" cy="47.045319" r="19.5" fx="20.913568" fy="47.045319" gradientTransform="matrix(1.3826 .00004 0 .1715 -6.729684 34.0972)" gradientUnits="userSpaceOnUse"/>
    <radialGradient xlink:href="#d" id="aC" cx="20.913568" cy="47.045319" r="19.5" fx="20.913568" fy="47.045319" gradientTransform="matrix(1.3826 .00004 0 .1715 -6.729684 34.0972)" gradientUnits="userSpaceOnUse"/>
    <radialGradient xlink:href="#d" id="aD" cx="20.913568" cy="47.045319" r="19.5" fx="20.913568" fy="47.045319" gradientTransform="matrix(1.3826 .00004 0 .1715 -6.729684 34.0972)" gradientUnits="userSpaceOnUse"/>
    <radialGradient xlink:href="#d" id="aE" cx="20.913568" cy="47.045319" r="19.5" fx="20.913568" fy="47.045319" gradientTransform="matrix(1.3826 .00004 0 .1715 -6.729684 34.0972)" gradientUnits="userSpaceOnUse"/>
    <radialGradient xlink:href="#d" id="aF" cx="20.913568" cy="47.045319" r="19.5" fx="20.913568" fy="47.045319" gradientTransform="matrix(1.3826 .00004 0 .1715 -6.729684 34.0972)" gradientUnits="userSpaceOnUse"/>
    <radialGradient xlink:href="#d" id="aG" cx="20.913568" cy="47.045319" r="19.5" fx="20.913568" fy="47.045319" gradientTransform="matrix(1.3826 .00004 0 .1715 -6.729684 34.0972)" gradientUnits="userSpaceOnUse"/>
    <radialGradient xlink:href="#d" id="aH" cx="20.913568" cy="47.045319" r="19.5" fx="20.913568" fy="47.045319" gradientTransform="matrix(1.3826 .00004 0 .1715 -6.729684 34.0972)" gradientUnits="userSpaceOnUse"/>
    <radialGradient xlink:href="#d" id="aI" cx="20.913568" cy="47.045319" r="19.5" fx="20.913568" fy="47.045319" gradientTransform="matrix(1.3826 .00004 0 .1715 -6.729684 34.0972)" gradientUnits="userSpaceOnUse"/>
    <radialGradient xlink:href="#d" id="aJ" cx="20.913568" cy="47.045319" r="19.5" fx="20.913568" fy="47.045319" gradientTransform="matrix(1.3826 .00004 0 .1715 -6.729684 34.0972)" gradientUnits="userSpaceOnUse"/>
    <radialGradient xlink:href="#d" id="aK" cx="20.913568" cy="47.045319" r="19.5" fx="20.913568" fy="47.045319" gradientTransform="matrix(1.3826 .00004 0 .1715 -6.729684 34.0972)" gradientUnits="userSpaceOnUse"/>
    <radialGradient xlink:href="#d" id="aL" cx="20.913568" cy="47.045319" r="19.5" fx="20.913568" fy="47.045319" gradientTransform="matrix(1.3826 .00004 0 .1715 -6.729684 34.0972)" gradientUnits="userSpaceOnUse"/>
    <radialGradient xlink:href="#d" id="aM" cx="20.913568" cy="47.045319" r="19.5" fx="20.913568" fy="47.045319" gradientTransform="matrix(1.3826 .00004 0 .1715 -6.729684 34.0972)" gradientUnits="userSpaceOnUse"/>
    <radialGradient xlink:href="#d" id="aN" cx="20.913568" cy="47.045319" r="19.5" fx="20.913568" fy="47.045319" gradientTransform="matrix(1.3826 .00004 0 .1715 -6.729684 34.0972)" gradientUnits="userSpaceOnUse"/>
    <radialGradient xlink:href="#d" id="aO" cx="20.913568" cy="47.045319" r="19.5" fx="20.913568" fy="47.045319" gradientTransform="matrix(1.3826 .00004 0 .1715 -6.729684 34.0972)" gradientUnits="userSpaceOnUse"/>
    <radialGradient xlink:href="#d" id="aP" cx="20.913568" cy="47.045319" r="19.5" fx="20.913568" fy="47.045319" gradientTransform="matrix(1.3826 .00004 0 .1715 -6.729684 34.0972)" gradientUnits="userSpaceOnUse"/>
    <radialGradient xlink:href="#d" id="aQ" cx="20.913568" cy="47.045319" r="19.5" fx="20.913568" fy="47.045319" gradientTransform="matrix(1.3826 .00004 0 .1715 -6.729684 34.0972)" gradientUnits="userSpaceOnUse"/>
    <radialGradient xlink:href="#d" id="aR" cx="20.913568" cy="47.045319" r="19.5" fx="20.913568" fy="47.045319" gradientTransform="matrix(1.3826 .00004 0 .1715 -6.729684 34.0972)" gradientUnits="userSpaceOnUse"/>
    <radialGradient xlink:href="#d" id="aS" cx="20.913568" cy="47.045319" r="19.5" fx="20.913568" fy="47.045319" gradientTransform="matrix(1.3826 .00004 0 .1715 -6.729684 34.0972)" gradientUnits="userSpaceOnUse"/>
    <radialGradient xlink:href="#d" id="aT" cx="20.913568" cy="47.045319" r="19.5" fx="20.913568" fy="47.045319" gradientTransform="matrix(1.3826 .00004 0 .1715 -6.729684 34.0972)" gradientUnits="userSpaceOnUse"/>
    <radialGradient xlink:href="#d" id="aU" cx="20.913568" cy="47.045319" r="19.5" fx="20.913568" fy="47.045319" gradientTransform="matrix(1.3826 .00004 0 .1715 -6.729684 34.0972)" gradientUnits="userSpaceOnUse"/>
    <radialGradient xlink:href="#d" id="aV" cx="20.913568" cy="47.045319" r="19.5" fx="20.913568" fy="47.045319" gradientTransform="matrix(1.3826 .00004 0 .1715 -6.729684 34.0972)" gradientUnits="userSpaceOnUse"/>
    <radialGradient xlink:href="#d" id="aW" cx="20.913568" cy="47.045319" r="19.5" fx="20.913568" fy="47.045319" gradientTransform="matrix(1.3826 .00004 0 .1715 -6.729684 34.0972)" gradientUnits="userSpaceOnUse"/>
    <radialGradient xlink:href="#d" id="aX" cx="20.913568" cy="47.045319" r="19.5" fx="20.913568" fy="47.045319" gradientTransform="matrix(1.3826 .00004 0 .1715 -6.729684 34.0972)" gradientUnits="userSpaceOnUse"/>
    <radialGradient xlink:href="#d" id="aY" cx="20.913568" cy="47.045319" r="19.5" fx="20.913568" fy="47.045319" gradientTransform="matrix(1.3826 .00004 0 .1715 -6.729684 34.0972)" gradientUnits="userSpaceOnUse"/>
    <radialGradient xlink:href="#d" id="aZ" cx="20.913568" cy="47.045319" r="19.5" fx="20.913568" fy="47.045319" gradientTransform="matrix(1.3826 .00004 0 .1715 -6.729684 34.0972)" gradientUnits="userSpaceOnUse"/>
    <radialGradient xlink:href="#d" id="ba" cx="20.913568" cy="47.045319" r="19.5" fx="20.913568" fy="47.045319" gradientTransform="matrix(1.3826 .00004 0 .1715 -6.729684 34.0972)" gradientUnits="userSpaceOnUse"/>
    <radialGradient xlink:href="#d" id="bb" cx="20.913568" cy="47.045319" r="19.5" fx="20.913568" fy="47.045319" gradientTransform="matrix(1.3826 .00004 0 .1715 -6.729684 34.0972)" gradientUnits="userSpaceOnUse"/>
    <radialGradient xlink:href="#d" id="bc" cx="20.913568" cy="47.045319" r="19.5" fx="20.913568" fy="47.045319" gradientTransform="matrix(1.3826 .00004 0 .1715 -6.729684 34.0972)" gradientUnits="userSpaceOnUse"/>
    <radialGradient xlink:href="#d" id="bd" cx="20.913568" cy="47.045319" r="19.5" fx="20.913568" fy="47.045319" gradientTransform="matrix(1.3826 .00004 0 .1715 -6.729684 34.0972)" gradientUnits="userSpaceOnUse"/>
    <radialGradient xlink:href="#d" id="be" cx="20.913568" cy="47.045319" r="19.5" fx="20.913568" fy="47.045319" gradientTransform="matrix(1.3826 .00004 0 .1715 -6.729684 34.0972)" gradientUnits="userSpaceOnUse"/>
    <radialGradient xlink:href="#d" id="bf" cx="20.913568" cy="47.045319" r="19.5" fx="20.913568" fy="47.045319" gradientTransform="matrix(1.3826 .00004 0 .1715 -6.729684 34.0972)" gradientUnits="userSpaceOnUse"/>
    <radialGradient xlink:href="#d" id="bg" cx="20.913568" cy="47.045319" r="19.5" fx="20.913568" fy="47.045319" gradientTransform="matrix(1.3826 .00004 0 .1715 -6.729684 34.0972)" gradientUnits="userSpaceOnUse"/>
    <radialGradient xlink:href="#d" id="bh" cx="20.913568" cy="47.045319" r="19.5" fx="20.913568" fy="47.045319" gradientTransform="matrix(1.3826 .00004 0 .1715 -6.729684 34.0972)" gradientUnits="userSpaceOnUse"/>
    <radialGradient xlink:href="#d" id="bi" cx="20.913568" cy="47.045319" r="19.5" fx="20.913568" fy="47.045319" gradientTransform="matrix(1.3826 .00004 0 .1715 -6.729684 34.0972)" gradientUnits="userSpaceOnUse"/>
    <radialGradient xlink:href="#d" id="bj" cx="20.913568" cy="47.045319" r="19.5" fx="20.913568" fy="47.045319" gradientTransform="matrix(1.3826 .00004 0 .1715 -6.729684 34.0972)" gradientUnits="userSpaceOnUse"/>
    <radialGradient xlink:href="#d" id="ab" cx="20.913568" cy="47.045319" r="19.5" fx="20.913568" fy="47.045319" gradientTransform="matrix(1.3826 .00004 0 .1715 -6.729684 34.0972)" gradientUnits="userSpaceOnUse"/>
    <linearGradient id="o">
      <stop offset="0" stop-color="#fff"/>
      <stop offset="1" stop-color="#fff" stop-opacity="0"/>
    </linearGradient>
    <linearGradient id="n">
      <stop offset="0" stop-color="#fff"/>
      <stop offset="1" stop-color="#fff" stop-opacity="0"/>
    </linearGradient>
    <linearGradient id="m">
      <stop offset="0" stop-color="#fff"/>
      <stop offset="1" stop-color="#fff" stop-opacity="0"/>
    </linearGradient>
    <linearGradient id="l">
      <stop offset="0" stop-color="#fff"/>
      <stop offset="1" stop-color="#fff" stop-opacity="0"/>
    </linearGradient>
    <linearGradient id="k">
      <stop offset="0" stop-color="#fff"/>
      <stop offset="1" stop-color="#fff" stop-opacity="0"/>
    </linearGradient>
    <linearGradient id="j">
      <stop offset="0" stop-color="#fff"/>
      <stop offset="1" stop-color="#fff" stop-opacity="0"/>
    </linearGradient>
    <linearGradient id="v">
      <stop offset="0" stop-color="#fff"/>
      <stop offset="1" stop-color="#fff" stop-opacity="0"/>
    </linearGradient>
    <linearGradient id="i">
      <stop offset="0" stop-color="#fff"/>
      <stop offset="1" stop-color="#fff" stop-opacity="0"/>
    </linearGradient>
    <linearGradient id="h">
      <stop offset="0" stop-color="#fff"/>
      <stop offset="1" stop-color="#fff" stop-opacity="0"/>
    </linearGradient>
    <linearGradient id="g">
      <stop offset="0" stop-color="#fff"/>
      <stop offset="1" stop-color="#fff" stop-opacity="0"/>
    </linearGradient>
    <linearGradient id="f">
      <stop offset="0" stop-color="#fff"/>
      <stop offset="1" stop-color="#fff" stop-opacity="0"/>
    </linearGradient>
    <linearGradient id="e">
      <stop offset="0" stop-color="#fff"/>
      <stop offset="1" stop-color="#fff" stop-opacity="0"/>
    </linearGradient>
    <linearGradient id="s">
      <stop offset="0" stop-opacity="0"/>
      <stop offset=".5"/>
      <stop offset="1" stop-opacity="0"/>
    </linearGradient>
    <linearGradient id="c">
      <stop offset="0"/>
      <stop offset="1" stop-opacity="0"/>
    </linearGradient>
    <linearGradient id="u">
      <stop offset="0" stop-color="#babdb6"/>
      <stop offset="1" stop-color="#eeeeec"/>
    </linearGradient>
    <linearGradient id="r">
      <stop offset="0"/>
      <stop offset="1" stop-opacity="0"/>
    </linearGradient>
    <linearGradient id="q">
      <stop offset="0" stop-color="#eeeeec"/>
      <stop offset="1" stop-color="#e6e6e3"/>
    </linearGradient>
    <linearGradient id="a">
      <stop offset="0"/>
      <stop offset="1" stop-opacity="0"/>
    </linearGradient>
    <linearGradient id="b">
      <stop offset="0" stop-color="#729fcf"/>
      <stop offset="1" stop-color="#326194"/>
    </linearGradient>
    <linearGradient id="t">
      <stop offset="0" stop-color="#eeeeec"/>
      <stop offset="1" stop-color="#d3d7cf"/>
    </linearGradient>
    <linearGradient id="d">
      <stop offset="0" stop-color="#fff"/>
      <stop offset="1" stop-color="#fff" stop-opacity="0"/>
    </linearGradient>
    <linearGradient id="p">
      <stop offset="0"/>
      <stop offset="1" stop-opacity="0"/>
    </linearGradient>
    <linearGradient xlink:href="#e" id="w" x1="228.50261" x2="278.9151" y1="-392.30591" y2="-375.37952" gradientTransform="translate(-1277.9096 2168.1471) scale(5.81784)" gradientUnits="userSpaceOnUse"/>
    <linearGradient xlink:href="#f" id="x" x1="240.07379" x2="245.82706" y1="-393.4072" y2="-388.55029" gradientUnits="userSpaceOnUse"/>
    <linearGradient xlink:href="#g" id="y" x1="246.74042" x2="252.69785" y1="-391.31381" y2="-385.35165" gradientUnits="userSpaceOnUse"/>
    <linearGradient xlink:href="#h" id="z" x1="230.87598" x2="235.25652" y1="-390.43951" y2="-386.95901" gradientUnits="userSpaceOnUse"/>
    <linearGradient xlink:href="#i" id="A" x1="238.00478" x2="245.65462" y1="-388.47476" y2="-382.64539" gradientUnits="userSpaceOnUse"/>
    <linearGradient xlink:href="#j" id="C" x1="271.0217" x2="285.02859" y1="-441.05182" y2="-431.96991" gradientUnits="userSpaceOnUse"/>
    <linearGradient xlink:href="#k" id="E" x1="287.5173" x2="289.67633" y1="-439.75281" y2="-436.32199" gradientUnits="userSpaceOnUse"/>
    <linearGradient xlink:href="#l" id="I" x1="286.51172" x2="289.85379" y1="-441.29074" y2="-436.14453" gradientUnits="userSpaceOnUse"/>
    <linearGradient xlink:href="#m" id="K" x1="285.94086" x2="289.39124" y1="-439.939" y2="-436.4429" gradientUnits="userSpaceOnUse"/>
    <linearGradient xlink:href="#n" id="M" x1="275.94193" x2="279.97546" y1="-437.10501" y2="-431.91833" gradientUnits="userSpaceOnUse"/>
    <linearGradient xlink:href="#o" id="N" x1="286.66589" x2="289.76562" y1="-439.48358" y2="-436.70703" gradientUnits="userSpaceOnUse"/>
    <linearGradient xlink:href="#m" id="P" x1="284.80219" x2="288.89954" y1="-441.23294" y2="-436.83109" gradientUnits="userSpaceOnUse"/>
    <linearGradient xlink:href="#p" id="R" x1="37.484837" x2="37.295498" y1="38.267769" y2="33.637787" gradientTransform="translate(24)" gradientUnits="userSpaceOnUse"/>
    <linearGradient xlink:href="#q" id="S" x1="31.743324" x2="31.86105" y1="37.842293" y2="43.82579" gradientTransform="matrix(1 0 0 .99278 0 -2.718035)" gradientUnits="userSpaceOnUse"/>
    <linearGradient xlink:href="#r" id="T" x1="23.154902" x2="23.529411" y1="34.572548" y2="40.219608" gradientTransform="matrix(1.00419 0 0 1 -.12454 -3.011765)" gradientUnits="userSpaceOnUse"/>
    <linearGradient xlink:href="#q" id="U" x1="17.247635" x2="39.904388" y1="6.3760414" y2="38.876041" gradientTransform="matrix(2.7443 0 0 2.74218 63.724479 -189.87076)" gradientUnits="userSpaceOnUse"/>
    <linearGradient xlink:href="#s" id="Y" x1="37.03125" x2="37.03125" y1="35.062885" y2="29.995127" gradientTransform="matrix(1 0 0 .88889 0 3.833333)" gradientUnits="userSpaceOnUse"/>
    <linearGradient xlink:href="#t" id="Z" x1="26.5" x2="26.5" y1="43.249905" y2="35.75" gradientTransform="matrix(1 0 0 .75304 -48 12.25251)" gradientUnits="userSpaceOnUse"/>
    <linearGradient xlink:href="#u" id="aa" x1="16.396038" x2="16.396038" y1="19.659277" y2="32.448051" gradientTransform="matrix(1 0 0 .83317 -48 19.08245)" gradientUnits="userSpaceOnUse"/>
    <linearGradient xlink:href="#v" id="bk" x1="-156.29044" x2="-153.0981" y1="-100.53421" y2="-96.544556" gradientUnits="userSpaceOnUse"/>
    <linearGradient xlink:href="#j" id="bl" x1="271.0217" x2="285.02859" y1="-441.05182" y2="-431.96991" gradientUnits="userSpaceOnUse"/>
    <linearGradient xlink:href="#k" id="bm" x1="287.5173" x2="289.67633" y1="-439.75281" y2="-436.32199" gradientUnits="userSpaceOnUse"/>
    <linearGradient xlink:href="#l" id="bn" x1="286.51172" x2="289.85379" y1="-441.29074" y2="-436.14453" gradientUnits="userSpaceOnUse"/>
    <linearGradient xlink:href="#m" id="bo" x1="285.94086" x2="289.39124" y1="-439.939" y2="-436.4429" gradientUnits="userSpaceOnUse"/>
    <linearGradient xlink:href="#n" id="bp" x1="275.94193" x2="279.97546" y1="-437.10501" y2="-431.91833" gradientUnits="userSpaceOnUse"/>
    <linearGradient xlink:href="#o" id="bq" x1="286.66589" x2="289.76562" y1="-439.48358" y2="-436.70703" gradientUnits="userSpaceOnUse"/>
    <linearGradient xlink:href="#m" id="br" x1="284.80219" x2="288.89954" y1="-441.23294" y2="-436.83109" gradientUnits="userSpaceOnUse"/>
  </defs>
  <g transform="translate(18.7359472 156.9076607) scale(.86353)">
    <path fill="#888a85" d="M132.91645-147.35302c-16.12949 0-29.71886 9.15559-37.270529 22.18051-5.494135-2.7637-11.43316-4.72699-17.99894-4.72699-22.480132 0-40.724876 18.24474-40.724876 40.724873 0 22.480131 18.244744 40.724876 40.724876 40.724876 14.077251 0 25.773549-7.675592 33.088959-18.544363 6.5986 4.012098 13.8987 6.908684 22.18051 6.908684 5.31239 0 10.19839-1.349855 14.90822-3.090727 2.96675 5.048313 6.85993 9.190557 11.63568 12.544716-.0407.75853-.36362 1.412688-.36362 2.18169 0 22.480131 18.24469 40.7248754 40.72488 40.7248754 22.48013 0 40.72487-18.2447444 40.72487-40.7248754 0-13.786476-7.32454-25.356123-17.81713-32.725347.0407-.75853.36362-1.412688.36362-2.18169 0-22.480132-18.24469-40.724872-40.72488-40.724872-3.62277 0-6.83707 1.29266-10.18122 2.18169-6.94958-14.88692-21.76651-25.45305-39.27042-25.45305z"/>
    <path fill="url(#w)" d="M132.91645-141.53518c-16.17638 0-29.87175 10.25016-35.270647 24.54401-5.733015-4.12741-12.400317-7.09049-19.998822-7.09049-19.268685 0-34.907037 15.63835-34.907037 34.907033 0 19.268684 15.638352 34.907036 34.907037 34.907036 14.124259 0 26.140949-8.46833 31.634499-20.544245 6.5204 5.338217 14.55705 8.908566 23.63497 8.908566 6.25151 0 11.8933-1.855658 17.08991-4.545187 2.31783 5.816443 6.40625 10.392523 11.27206 14.180984-1.04727 3.465221-2.18169 6.921193-2.18169 10.726641 0 20.874408 16.94155 37.8159564 37.81596 37.8159564 20.87441 0 37.81595-16.9415484 37.81595-37.8159564 0-13.734697-7.76291-25.19235-18.72617-31.816309.3642-2.020128 1.27266-3.875146 1.27266-5.999647 0-19.268682-15.63836-34.907032-34.90704-34.907032-4.9625 0-9.72336 1.03953-13.99918 2.90892-4.96709-15.09078-18.70575-26.18022-35.45246-26.18028z"/>
    <path fill="#c4c5c2" d="M234.72830563-45.54024853c0 20.8851999-16.93079309 37.81599299-37.81593688 37.81599299-20.8851999 0-37.815993-16.9307931-37.815993-37.815993 0-20.88514378 16.9307931-37.81593688 37.815993-37.81593688 20.8851438 0 37.81593688 16.9307931 37.81593688 37.81593689z"/>
    <g transform="translate(-1277.3316 2177.3947) scale(5.81784)">
      <path fill="#c4c5c2" d="M247.99999547-390.49999938c0 3.03756232-2.46243179 5.50000293-5.50000293 5.50000293-3.03756232 0-5.50000293-2.4624406-5.50000293-5.50000293 0-3.03757114 2.46244061-5.50000293 5.50000293-5.50000293 3.03757114 0 5.50000293 2.46243179 5.50000293 5.50000293z"/>
      <path fill="url(#x)" d="M250.18322-389.30136c0 3.44149-2.78988 6.23138-6.23138 6.23138-3.44149 0-6.23138-2.78989-6.23138-6.23138 0-3.4415 2.78989-6.23138 6.23138-6.23138 3.4415 0 6.23138 2.78988 6.23138 6.23138z" transform="translate(27.18078 -46.89094) scale(.88263)"/>
    </g>
    <g transform="translate(-1277.9096 2168.1471) scale(5.81784)">
      <path fill="#c4c5c2" d="M256.00000931-386.5000005c0 3.03756772-2.46243145 5.49999917-5.49999916 5.49999917-3.0375677 0-5.50000827-2.46243145-5.50000827-5.49999916s2.46244056-5.50000828 5.50000827-5.50000828c3.03756771 0 5.49999916 2.46244057 5.49999916 5.50000828z"/>
      <path fill="url(#y)" d="M257.25429-385.7879c0 3.33166-2.70084 6.0325-6.0325 6.0325s-6.03251-2.70084-6.03251-6.0325 2.70085-6.03251 6.03251-6.03251c3.33166 0 6.0325 2.70085 6.0325 6.03251z" transform="translate(21.45407 -34.76637) scale(.91173)"/>
    </g>
    <g transform="translate(-1277.9096 2168.1471) scale(5.81784)">
      <path fill="#c4c5c2" d="M238.00000597-388.00000713c0 2.76142522-2.23858325 5.00000847-5.00000847 5.00000847-2.76141379 0-4.99999704-2.23858325-4.99999704-5.00000847s2.23858325-4.99999704 4.99999704-4.99999704c2.76142522 0 5.00000847 2.23857182 5.00000847 4.99999704z"/>
      <path fill="url(#z)" d="M237.80885-387.88715c0 2.41637-1.95886 4.37523-4.37523 4.37523-2.41636 0-4.37522-1.95886-4.37522-4.37523s1.95886-4.37522 4.37522-4.37522c2.41637 0 4.37523 1.95885 4.37523 4.37522z" transform="translate(-33.76771 55.27704) scale(1.1428)"/>
    </g>
    <g transform="translate(-1277.9096 2168.1471) scale(5.81784)">
      <path fill="#c4c5c2" d="M249.00000207-384.00000276c0 3.86600054-3.13401142 7.00001196-7.00000157 7.00001196-3.86600053 0-7.00001196-3.13401142-7.00001196-7.00001196 0-3.86599014 3.13401143-7.00000157 7.00001196-7.00000157 3.86599015 0 7.00000157 3.13401143 7.00000157 7.00000157z"/>
      <path fill="url(#A)" d="M248.54804-383.6666c0 3.72219-3.01743 6.73962-6.73961 6.73962-3.72219 0-6.73962-3.01743-6.73962-6.73962 0-3.72218 3.01743-6.73961 6.73962-6.73961 3.72218 0 6.73961 3.01743 6.73961 6.73961z" transform="translate(-9.150933 14.48993) scale(1.03864)"/>
    </g>
    <g transform="translate(-1441.5013 2509.7038) scale(5.81784)">
      <use xlink:href="#B" stroke-miterlimit="2"/>
      <path fill="url(#C)" d="M280.5-445c-2.18972 0-3.7236 1.33577-4.39555 3.84352-.66846-.34362-1.54759-.83335-2.35445-.83335-2.71651 0-4.75514 1.93882-4.75513 4.54554 0 .54677.26721 1.33344.44196 1.82201-1.32443.72795-2.43683 1.8905-2.43683 3.37255 0 2.34605 1.54617 4.25009 4.33928 4.25009h18.32144c2.77101 0 4.33928-1.90404 4.33928-4.25009 0-1.59237-1.1124-2.66669-2.43683-3.39464.17476-.48856.46407-1.25316.46407-1.79992 0-2.60671-2.11581-4.56763-4.77723-4.56764-.80687 0-1.64181.48974-2.31027.83336C284.29089-443.60011 282.68973-445 280.5-445z"/>
      <use xlink:href="#D"/>
      <path fill="url(#E)" d="M291.6875-437.59375c0 1.82944-1.48306 3.3125-3.3125 3.3125s-3.3125-1.48306-3.3125-3.3125 1.48306-3.3125 3.3125-3.3125 3.3125 1.48306 3.3125 3.3125z" transform="translate(-24.19818 21.86331) scale(1.0566)"/>
      <use xlink:href="#F"/>
      <use xlink:href="#G"/>
      <use xlink:href="#H"/>
      <path fill="url(#I)" d="M291.6875-437.59375c0 1.82944-1.48306 3.3125-3.3125 3.3125s-3.3125-1.48306-3.3125-3.3125 1.48306-3.3125 3.3125-3.3125 3.3125 1.48306 3.3125 3.3125z" transform="translate(-17.19818 24.86331) scale(1.0566)"/>
      <use xlink:href="#J"/>
      <path fill="url(#K)" d="M291.6875-437.59375c0 1.82944-1.48306 3.3125-3.3125 3.3125s-3.3125-1.48306-3.3125-3.3125 1.48306-3.3125 3.3125-3.3125 3.3125 1.48306 3.3125 3.3125z" transform="translate(-31.19818 24.86331) scale(1.0566)"/>
      <g transform="translate(-1)">
        <use xlink:href="#L"/>
        <path fill="url(#M)" d="M280.5-441c-3.588 0-6.5 2.91201-6.5 6.5 0 2.3764 1.34485 4.36632 3.25 5.5h6.5c1.90515-1.13368 3.25-3.1236 3.25-5.5 0-3.588-2.912-6.49999-6.5-6.5z"/>
      </g>
      <path fill="url(#N)" d="M291.6875-437.59375c0 1.82944-1.48306 3.3125-3.3125 3.3125s-3.3125-1.48306-3.3125-3.3125 1.48306-3.3125 3.3125-3.3125 3.3125 1.48306 3.3125 3.3125z" transform="translate(9.830296 -35.68884) scale(.90566)"/>
      <use xlink:href="#O" fill-rule="evenodd"/>
      <g transform="translate(-28.57139 67.00008) scale(1.14286)">
        <use xlink:href="#J"/>
        <path fill="url(#P)" d="M291.6875-437.59375c0 1.82944-1.48306 3.3125-3.3125 3.3125s-3.3125-1.48306-3.3125-3.3125 1.48306-3.3125 3.3125-3.3125 3.3125 1.48306 3.3125 3.3125z" transform="translate(-31.19818 24.86331) scale(1.0566)"/>
      </g>
    </g>
    <path fill="url(#Q)" fill-rule="evenodd" d="M47.69706 42.6875c0 3.249411-10.637518 5.883578-23.75956 5.883578S.17794037 45.936911.17794037 42.6875 10.815458 36.803922 23.9375 36.803922c13.122042 0 23.75956 2.634167 23.75956 5.883578z" opacity=".2" transform="matrix(2.65901 0 0 2.37218 67.691589 -183.76345)"/>
    <g fill="none" transform="translate(-4.9394383 -181.71087) scale(2.74622)">
      <path stroke="url(#R)" d="M66.13085 41.787912c-8.283575-10.558058 7.435811-2.289121 5.766613-5.948223-1.635753-3.585786-20.554268.674175-18.564963-5.325825" opacity=".20786516"/>
      <path stroke="#729fcf" stroke-width="1.00000012" d="M65.675044 41.213388C57.656634 30.125 72.913568 39.404152 71.161327 35c-1.989306-5-18.609724 1.027728-17.681079-4.883884"/>
    </g>
    <g transform="translate(76.173102 -170.32838) scale(2.22723)">
      <path fill="url(#S)" fill-rule="evenodd" stroke="#888a85" stroke-width="1.23301888" d="M14.375479 32.558794s1.216876 4.898976-3.856329 4.944966c-2.4302757.02175-1.9324777 4.006021-1.9324777 4.006021l30.8464667-.03115s.418438-3.867241-2.022217-3.912581c-4.987467-.09147-3.810529-5.06955-3.810529-5.06955l-19.224914.06229z" color="#000" overflow="visible" style="marker:none"/>
      <path fill="url(#T)" fill-rule="evenodd" d="M13.926195 33.027451c.08401 2.172549-.28454 2.911443-1.640464 3.675231L36 38c-.952992-1.168628-2.339163-2.933334-1.961117-4.988235l-20.112688.01569z" opacity=".5"/>
      <path fill="none" stroke="#8d8d8f" stroke-linecap="round" stroke-opacity=".43902438" stroke-width="1.23301923" d="M10.436202 38.661601c6.564263.002 27.126435 0 27.126435 0"/>
      <path fill="none" stroke="#fff" stroke-linecap="round" stroke-width="1.23301911" d="M9.647928 39.660187c6.706693.002 28.719861 0 28.719861 0"/>
    </g>
    <path fill="url(#U)" fill-rule="evenodd" stroke="#888a85" stroke-width="2.74622154" d="M77.140365-180.33228H181.77757c5.55755 0 9.60776 3.91488 9.60776 9.94351l.0302 69.10929c.00001 4.639952-1.44994 6.074552-5.58371 6.074552l-112.414329-.0519c-3.236278-.079-5.539642-1.35645-5.583095-5.537292l.04189-70.10945c0-4.86415 4.224607-9.42869 9.264269-9.42869z"/>
    <path fill="url(#V)" fill-rule="evenodd" stroke="#204a87" stroke-width="2.74622059" d="M78.820274-169.35287h101.61015v63.163063H78.820274z"/>
    <path fill="none" stroke="#fff" stroke-width="2.74621916" d="M77.402796-177.60547c-3.56868 0-6.821172 3.51933-6.821172 6.96581v69.5454c.01687 1.639932.397533 2.149112.767378 2.463522.36984.3144 1.151194.56249 2.472675.59464l111.696633.0849c1.7767 0 2.33824-.27462 2.55793-.5097.21968-.23507.59686-1.08925.59686-3.143112v-68.52601c0-4.9125-2.7579-7.47551-7.16223-7.47551H77.402796z"/>
    <g opacity=".4" transform="translate(63.716073 -146.01001) scale(2.74622)">
      <path fill="url(#W)" d="M0 30.5h4V35H0z"/>
      <path fill="url(#X)" d="M-48-35h4v4.5h-4z" transform="scale(-1)"/>
      <path fill="url(#Y)" d="M4 30.5h40V35H4z"/>
    </g>
    <g stroke-linejoin="round" transform="translate(195.53466 -181.71087) scale(2.74622)">
      <path fill="url(#Z)" stroke="#888a85" stroke-width="1.00000417" d="M-42.6875 40.49166c-.967886 0-1.847763.285348-2.4375 1.247229l-1.8125 2.918046c-.808653 1.054721-.156385 1.859077 2.59375 1.859077h40.4375c2.750135 0 3.402403-.804356 2.59375-1.859077l-1.8125-2.918046c-.589737-.961881-1.469614-1.247229-2.4375-1.247229h-37.125z"/>
      <path fill="none" stroke="#fff" stroke-width="1.22474873" d="M5.3125 38.5c-.7068869 0-1.0686379.06052-1.53125 1.0625a1.0001 1.0001 0 0 1 0 .03125l-1.8125 3.875a1.0001 1.0001 0 0 1-.03125.0625c-.1455374.252075-.1851561.42743-.1875.5-.00234.07257-.035314.05527 0 .09375.070629.07696.6606476.375 1.90625.375h40.4375c1.245602 0 1.835621-.298042 1.90625-.375.03531-.03848.0023-.02118 0-.09375s-.04196-.247925-.1875-.5a1.0001 1.0001 0 0 1-.03125-.0625l-1.8125-3.875a1.0001 1.0001 0 0 1 0-.03125c-.462612-1.001982-.824363-1.0625-1.53125-1.0625H5.3125z" transform="matrix(1 0 0 .66667 -48 15.83327)"/>
    </g>
    <g color="#000" transform="translate(195.53466 -181.71087) scale(2.74622)">
      <path fill="url(#aa)" stroke="#babdb6" stroke-linecap="square" stroke-linejoin="round" stroke-width=".99999923" d="M-41.565234 39.500963c-.003.0031.0028.02359 0 .026-.01467.0041-.05022.02021-.06523.02601-.005.0021-.02762-.0023-.03262 0-.005.0025-.02769.0233-.03262.026-.0097.0058-.02321.01943-.03262.026-.0046.0035-.02815.02233-.03262.02601-.0043.0039-.02844.02193-.03262.02601-.06487.075-.133186.205396-.228319.364081l-2.22755 3.952895c0 .0049-.000228.02105 0 .026.000453.005-.000674.02104 0 .026.000891.005-.0011.02106 0 .02601.0026.0099.02917.04222.03262.05201.0019.0049-.0021.02117 0 .02601.0069.01439.02403.03804.03262.05201.0091.0138.02197.03881.03262.05201.0037.0043.02875.02176.03262.026.004.0042.02844.02194.03262.02601.02595.02385.06703.05818.09785.07802.0053.0032.02724.02296.03262.02601.0165.0079.04736.01884.06523.026.120228.04402.279283.07802.42402.07802h23.114643l-.09785-4.993121-20.789242-.000006c-.06851 0-.143762-.0019-.195701 0-.01215.000057-.05203.000511-.06523 0-.004.000025-.02896-.000214-.03262 0-.0028.0024-.02957-.0031-.03262 0zm23.039809.000006.09785 1.664375h5.642726l-.260935-1.664375h-5.479641zm7.436655 0 1.17421 4.993121h5.218705c.144736 0 .303792-.034.42402-.07802.017877-.0072.048735-.0181.065233-.026.00538-.003.027357-.02283.032617-.02601.030821-.01983.071897-.05416.097851-.07802.00418-.0041.028592-.02185.032616-.02601.00387-.0042.028906-.02168.032618-.026.010648-.0132.023496-.03821.032617-.05201.00859-.01397.025688-.03762.032617-.05201.00212-.0048-.00192-.02114 0-.02601.00345-.0098.029987-.04214.032617-.05201.0011-.005-.000892-.02105 0-.02601.000673-.005-.000454-.02104 0-.026.000229-.005 0-.02106 0-.026l-1.826015-3.9529c-.095133-.158684-.163448-.289078-.228319-.364081-.004174-.004074-.028287-.022131-.032617-.026006-.00447-.0037-.028021-.02252-.032617-.02601-.00941-.0066-.022876-.02021-.032617-.026-.00493-.0027-.027643-.0235-.032616-.026-.005-.0023-.027608.0021-.032617 0-.015014-.0058-.050564-.02192-.065234-.02601-.016117-.0031-.041567-.02056-.065235-.026-.011875-.0025-.054353.0014-.065233 0-.05194-.0019-.127187 0-.195701 0l-4.5669.000006zm-6.131978 3.328747-1.043741 1.664374h6.001511l-1.304677-1.664374h-3.653093z" overflow="visible" style="marker:none"/>
      <g fill="url(#ab)" transform="translate(-48 -.00589)">
        <rect width="1" height="1" x="7" y="39" fill="url(#ac)" overflow="visible" rx=".26516503" ry=".26516503" style="marker:none"/>
        <rect width="1" height="1" x="9" y="39" fill="url(#ad)" overflow="visible" rx=".26516503" ry=".26516503" style="marker:none"/>
        <rect width="1" height="1" x="11" y="39" fill="url(#ae)" overflow="visible" rx=".26516503" ry=".26516503" style="marker:none"/>
        <rect width="1" height="1" x="13" y="39" fill="url(#af)" overflow="visible" rx=".26516503" ry=".26516503" style="marker:none"/>
        <rect width="1" height="1" x="15" y="39" fill="url(#ag)" overflow="visible" rx=".26516503" ry=".26516503" style="marker:none"/>
        <rect width="1" height="1" x="17" y="39" fill="url(#ah)" overflow="visible" rx=".26516503" ry=".26516503" style="marker:none"/>
        <rect width="1" height="1" x="19" y="39" fill="url(#ai)" overflow="visible" rx=".26516503" ry=".26516503" style="marker:none"/>
        <rect width="1" height="1" x="21" y="39" fill="url(#aj)" overflow="visible" rx=".26516503" ry=".26516503" style="marker:none"/>
        <rect width="1" height="1" x="6" y="40" fill="url(#ak)" overflow="visible" rx=".26516503" ry=".26516503" style="marker:none"/>
        <rect width="1" height="1" x="8" y="40" fill="url(#al)" overflow="visible" rx=".26516503" ry=".26516503" style="marker:none"/>
        <rect width="1" height="1" x="10" y="40" fill="url(#am)" overflow="visible" rx=".26516503" ry=".26516503" style="marker:none"/>
        <rect width="1" height="1" x="12" y="40" fill="url(#an)" overflow="visible" rx=".26516503" ry=".26516503" style="marker:none"/>
        <rect width="1" height="1" x="14" y="40" fill="url(#ao)" overflow="visible" rx=".26516503" ry=".26516503" style="marker:none"/>
        <rect width="1" height="1" x="16" y="40" fill="url(#ap)" overflow="visible" rx=".26516503" ry=".26516503" style="marker:none"/>
        <rect width="1" height="1" x="18" y="40" fill="url(#aq)" overflow="visible" rx=".26516503" ry=".26516503" style="marker:none"/>
        <rect width="1" height="1" x="20" y="40" fill="url(#ar)" overflow="visible" rx=".26516503" ry=".26516503" style="marker:none"/>
        <rect width="1" height="1" x="7" y="41" fill="url(#as)" overflow="visible" rx=".26516503" ry=".26516503" style="marker:none"/>
        <rect width="1" height="1" x="9" y="41" fill="url(#at)" overflow="visible" rx=".26516503" ry=".26516503" style="marker:none"/>
        <rect width="1" height="1" x="11" y="41" fill="url(#au)" overflow="visible" rx=".26516503" ry=".26516503" style="marker:none"/>
        <rect width="1" height="1" x="13" y="41" fill="url(#av)" overflow="visible" rx=".26516503" ry=".26516503" style="marker:none"/>
        <rect width="1" height="1" x="15" y="41" fill="url(#aw)" overflow="visible" rx=".26516503" ry=".26516503" style="marker:none"/>
        <rect width="1" height="1" x="17" y="41" fill="url(#ax)" overflow="visible" rx=".26516503" ry=".26516503" style="marker:none"/>
        <rect width="1" height="1" x="19" y="41" fill="url(#ay)" overflow="visible" rx=".26516503" ry=".26516503" style="marker:none"/>
        <rect width="1" height="1" x="21" y="41" fill="url(#az)" overflow="visible" rx=".26516503" ry=".26516503" style="marker:none"/>
        <rect width="1" height="1" x="6" y="42" fill="url(#aA)" overflow="visible" rx=".26516503" ry=".26516503" style="marker:none"/>
        <rect width="1" height="1" x="8" y="42" fill="url(#aB)" overflow="visible" rx=".26516503" ry=".26516503" style="marker:none"/>
        <rect width="1" height="1" x="10" y="42" fill="url(#aC)" overflow="visible" rx=".26516503" ry=".26516503" style="marker:none"/>
        <rect width="1" height="1" x="12" y="42" fill="url(#aD)" overflow="visible" rx=".26516503" ry=".26516503" style="marker:none"/>
        <rect width="1" height="1" x="14" y="42" fill="url(#aE)" overflow="visible" rx=".26516503" ry=".26516503" style="marker:none"/>
        <rect width="1" height="1" x="16" y="42" fill="url(#aF)" overflow="visible" rx=".26516503" ry=".26516503" style="marker:none"/>
        <rect width="1" height="1" x="18" y="42" fill="url(#aG)" overflow="visible" rx=".26516503" ry=".26516503" style="marker:none"/>
        <rect width="1" height="1" x="20" y="42" fill="url(#aH)" overflow="visible" rx=".26516503" ry=".26516503" style="marker:none"/>
        <rect width="1" height="1" x="5" y="43" fill="url(#aI)" overflow="visible" rx=".26516503" ry=".26516503" style="marker:none"/>
        <rect width="1" height="1" x="7" y="43" fill="url(#aJ)" overflow="visible" rx=".26516503" ry=".26516503" style="marker:none"/>
        <rect width="1" height="1" x="22" y="42" fill="url(#aK)" overflow="visible" rx=".26516503" ry=".26516503" style="marker:none"/>
        <rect width="1" height="1" x="23" y="41" fill="url(#aL)" overflow="visible" rx=".26516503" ry=".26516503" style="marker:none"/>
        <rect width="1" height="1" x="22" y="40" fill="url(#aM)" overflow="visible" rx=".26516503" ry=".26516503" style="marker:none"/>
        <rect width="1" height="1" x="23" y="39" fill="url(#aN)" overflow="visible" rx=".26516503" ry=".26516503" style="marker:none"/>
        <rect width="1" height="1" x="24" y="40" fill="url(#aO)" overflow="visible" rx=".26516503" ry=".26516503" style="marker:none"/>
        <rect width="1" height="1" x="25" y="39" fill="url(#aP)" overflow="visible" rx=".26516503" ry=".26516503" style="marker:none"/>
        <rect width="1" height="1" x="26" y="40" fill="url(#aQ)" overflow="visible" rx=".26516503" ry=".26516503" style="marker:none"/>
        <rect width="1" height="1" x="25" y="41" fill="url(#aR)" overflow="visible" rx=".26516503" ry=".26516503" style="marker:none"/>
        <rect width="1" height="1" x="24" y="42" fill="url(#aS)" overflow="visible" rx=".26516503" ry=".26516503" style="marker:none"/>
        <rect width="1" height="1" x="26" y="42" fill="url(#aT)" overflow="visible" rx=".26516503" ry=".26516503" style="marker:none"/>
        <rect width="1" height="1" x="25" y="43" fill="url(#aU)" overflow="visible" rx=".26516503" ry=".26516503" style="marker:none"/>
        <rect width="1" height="1" x="23" y="43" fill="url(#aV)" overflow="visible" rx=".26516503" ry=".26516503" style="marker:none"/>
        <rect width="1" height="1" x="31" y="43" fill="url(#aW)" overflow="visible" rx=".26516503" ry=".26516503" style="marker:none"/>
        <rect width="1" height="1" x="33" y="43" fill="url(#aX)" overflow="visible" rx=".26516503" ry=".26516503" style="marker:none"/>
        <rect width="1" height="1" x="31" y="39" fill="url(#aY)" overflow="visible" rx=".26516503" ry=".26516503" style="marker:none"/>
        <rect width="1" height="1" x="33" y="39" fill="url(#aZ)" overflow="visible" rx=".26516503" ry=".26516503" style="marker:none"/>
        <rect width="1" height="1" x="37" y="39" fill="url(#ba)" overflow="visible" rx=".26516503" ry=".26516503" style="marker:none"/>
        <rect width="1" height="1" x="38" y="40" fill="url(#bb)" overflow="visible" rx=".26516503" ry=".26516503" style="marker:none"/>
        <rect width="1" height="1" x="39" y="39" fill="url(#bc)" overflow="visible" rx=".26516503" ry=".26516503" style="marker:none"/>
        <rect width="1" height="1" x="41" y="41" fill="url(#bd)" overflow="visible" rx=".26516503" ry=".26516503" style="marker:none"/>
        <rect width="1" height="1" x="39" y="41" fill="url(#be)" overflow="visible" rx=".26516503" ry=".26516503" style="marker:none"/>
        <rect width="1" height="1" x="38" y="42" fill="url(#bf)" overflow="visible" rx=".26516503" ry=".26516503" style="marker:none"/>
        <rect width="1" height="1" x="40" y="42" fill="url(#bg)" overflow="visible" rx=".26516503" ry=".26516503" style="marker:none"/>
        <rect width="1" height="1" x="41" y="43" fill="url(#bh)" overflow="visible" rx=".26516503" ry=".26516503" style="marker:none"/>
        <rect width="1" height="1" x="40" y="40" fill="url(#bi)" overflow="visible" rx=".26516503" ry=".26516503" style="marker:none"/>
        <rect width="1" height="1" x="43" y="43" fill="url(#bj)" overflow="visible" rx=".26516503" ry=".26516503" style="marker:none"/>
      </g>
    </g>
    <g transform="translate(-33.33266 -157.25477) scale(5.81784)">
      <g transform="translate(159.828 110.3838) scale(.93503)">
        <path fill="#c4c5c2" d="M-153.19460769-98.37500269c0 2.99913601-2.43127962 5.43041563-5.43041562 5.43041563-2.99913601 0-5.43041563-2.43127962-5.43041563-5.43041563 0-2.999136 2.43127962-5.43041562 5.43041563-5.43041562 2.999136 0 5.43041562 2.43127962 5.43041562 5.43041562z"/>
        <path fill="url(#bk)" d="M-151.9375-96.9375c0 1.72589-1.39911 3.125-3.125 3.125s-3.125-1.39911-3.125-3.125 1.39911-3.125 3.125-3.125 3.125 1.39911 3.125 3.125z" transform="translate(110.8948 70.01402) scale(1.73773)"/>
      </g>
      <g transform="translate(-264 456)">
        <use xlink:href="#B" stroke-miterlimit="2"/>
        <path fill="url(#bl)" d="M280.5-445c-2.18972 0-3.7236 1.33577-4.39555 3.84352-.66846-.34362-1.54759-.83335-2.35445-.83335-2.71651 0-4.75514 1.93882-4.75513 4.54554 0 .54677.26721 1.33344.44196 1.82201-1.32443.72795-2.43683 1.8905-2.43683 3.37255 0 2.34605 1.54617 4.25009 4.33928 4.25009h18.32144c2.77101 0 4.33928-1.90404 4.33928-4.25009 0-1.59237-1.1124-2.66669-2.43683-3.39464.17476-.48856.46407-1.25316.46407-1.79992 0-2.60671-2.11581-4.56763-4.77723-4.56764-.80687 0-1.64181.48974-2.31027.83336C284.29089-443.60011 282.68973-445 280.5-445z"/>
        <use xlink:href="#D"/>
        <path fill="url(#bm)" d="M291.6875-437.59375c0 1.82944-1.48306 3.3125-3.3125 3.3125s-3.3125-1.48306-3.3125-3.3125 1.48306-3.3125 3.3125-3.3125 3.3125 1.48306 3.3125 3.3125z" transform="translate(-24.19818 21.86331) scale(1.0566)"/>
        <use xlink:href="#F"/>
        <use xlink:href="#G"/>
        <use xlink:href="#H"/>
        <path fill="url(#bn)" d="M291.6875-437.59375c0 1.82944-1.48306 3.3125-3.3125 3.3125s-3.3125-1.48306-3.3125-3.3125 1.48306-3.3125 3.3125-3.3125 3.3125 1.48306 3.3125 3.3125z" transform="translate(-17.19818 24.86331) scale(1.0566)"/>
        <use xlink:href="#J"/>
        <path fill="url(#bo)" d="M291.6875-437.59375c0 1.82944-1.48306 3.3125-3.3125 3.3125s-3.3125-1.48306-3.3125-3.3125 1.48306-3.3125 3.3125-3.3125 3.3125 1.48306 3.3125 3.3125z" transform="translate(-31.19818 24.86331) scale(1.0566)"/>
        <g transform="translate(-1)">
          <use xlink:href="#L"/>
          <path fill="url(#bp)" d="M280.5-441c-3.588 0-6.5 2.91201-6.5 6.5 0 2.3764 1.34485 4.36632 3.25 5.5h6.5c1.90515-1.13368 3.25-3.1236 3.25-5.5 0-3.588-2.912-6.49999-6.5-6.5z"/>
        </g>
        <path fill="url(#bq)" d="M291.6875-437.59375c0 1.82944-1.48306 3.3125-3.3125 3.3125s-3.3125-1.48306-3.3125-3.3125 1.48306-3.3125 3.3125-3.3125 3.3125 1.48306 3.3125 3.3125z" transform="translate(9.830296 -35.68884) scale(.90566)"/>
        <use xlink:href="#O" fill-rule="evenodd"/>
        <g transform="translate(-28.57139 67.00008) scale(1.14286)">
          <use xlink:href="#J"/>
          <path fill="url(#br)" d="M291.6875-437.59375c0 1.82944-1.48306 3.3125-3.3125 3.3125s-3.3125-1.48306-3.3125-3.3125 1.48306-3.3125 3.3125-3.3125 3.3125 1.48306 3.3125 3.3125z" transform="translate(-31.19818 24.86331) scale(1.0566)"/>
        </g>
      </g>
    </g>
  </g>
</svg>