<?xml version="1.0" encoding="UTF-8" standalone="no"?>
<svg xmlns="http://www.w3.org/2000/svg" xmlns:xlink="http://www.w3.org/1999/xlink" width="407" height="407">
  <defs>
    <path id="m" fill="#fff" fill-rule="evenodd" d="M206.93359 339.08203c0 7.01143-5.96808 12.69531-13.33007 12.69531-7.362 0-13.33008-5.68388-13.33008-12.69531 0-7.01143 5.96808-12.69531 13.33008-12.69531 7.36199 0 13.33007 5.68388 13.33007 12.69531z" filter="url(#a)"/>
  </defs>
  <defs>
    <linearGradient id="g">
      <stop offset="0" stop-color="#fff"/>
      <stop offset="1" stop-color="#fff" stop-opacity="0"/>
    </linearGradient>
    <linearGradient id="f">
      <stop offset="0" stop-color="#fff"/>
      <stop offset="1" stop-color="#fff" stop-opacity="0"/>
    </linearGradient>
    <linearGradient id="e">
      <stop offset="0" stop-color="#fff"/>
      <stop offset="1" stop-color="#fff" stop-opacity="0"/>
    </linearGradient>
    <linearGradient id="d">
      <stop offset="0" stop-color="#fff"/>
      <stop offset="1" stop-color="#fff" stop-opacity="0"/>
    </linearGradient>
    <linearGradient id="c">
      <stop offset="0" stop-color="#fff"/>
      <stop offset=".5" stop-color="#fff" stop-opacity=".49803922"/>
      <stop offset="1" stop-color="#fff" stop-opacity="0"/>
    </linearGradient>
    <linearGradient id="b">
      <stop offset="0" stop-color="#fff" stop-opacity=".30000001"/>
      <stop offset="1" stop-color="#fff" stop-opacity="0"/>
    </linearGradient>
    <linearGradient xlink:href="#b" id="h" x1="369" x2="369" y1="614.86218" y2="478.36218" gradientTransform="matrix(.97422 0 0 1.04423 -152.37144 -243.18363)" gradientUnits="userSpaceOnUse"/>
    <linearGradient xlink:href="#c" id="i" x1="84.270332" x2="398.27032" y1="158.15402" y2="158.15402" gradientTransform="matrix(-.12478 .62895 -1.34463 -.0814 448.14031 -32.957024)" gradientUnits="userSpaceOnUse" spreadMethod="reflect"/>
    <linearGradient xlink:href="#d" id="j" x1="149.80469" x2="365.625" y1="360.66406" y2="360.66406" gradientTransform="matrix(-.05429 -.74636 -1.50751 .03085 772.50444 499.09629)" gradientUnits="userSpaceOnUse"/>
    <linearGradient xlink:href="#e" id="k" x1="213.15121" x2="242.87743" y1="252.88338" y2="252.88338" gradientTransform="matrix(-1.81918 0 0 1 610.04675 -50.01213)" gradientUnits="userSpaceOnUse"/>
    <linearGradient xlink:href="#f" id="l" x1="213.27011" x2="242.75851" y1="252.88338" y2="252.88338" gradientTransform="matrix(-4.32 -8.88399 -.82294 .01073 1396.8773 2227.0713)" gradientUnits="userSpaceOnUse"/>
    <linearGradient xlink:href="#g" id="p" x1="210.78125" x2="239.90234" y1="257.83203" y2="257.83203" gradientTransform="matrix(-.74242 -.54471 .51897 -.77925 254.64457 522.83946)" gradientUnits="userSpaceOnUse"/>
    <filter id="o" width="1.5855719" height="1.6148505" x="-.29278594" y="-.30742526" color-interpolation-filters="sRGB">
      <feGaussianBlur stdDeviation="3.2523829"/>
    </filter>
    <filter id="r" width="1.7026863" height="1.7378206" x="-.35134313" y="-.36891031" color-interpolation-filters="sRGB">
      <feGaussianBlur stdDeviation="3.9028595"/>
    </filter>
    <filter id="q" width="1.7026863" height="1.7378206" x="-.35134313" y="-.36891031" color-interpolation-filters="sRGB">
      <feGaussianBlur stdDeviation="3.9028595"/>
    </filter>
    <filter id="a" width="1.7026863" height="1.7378206" x="-.35134313" y="-.36891031" color-interpolation-filters="sRGB">
      <feGaussianBlur stdDeviation="3.9028595"/>
    </filter>
    <filter id="n" width="1.7026863" height="1.7378206" x="-.35134313" y="-.36891031" color-interpolation-filters="sRGB">
      <feGaussianBlur stdDeviation="3.9028595"/>
    </filter>
  </defs>
  <path fill="#183f8e" stroke="#0b1e46" stroke-width="7.80000019" d="M402.75789 203.5a199.25789 199.25789 0 0 1-398.51578 0 199.25789 199.25789 0 1 1 398.51578 0z"/>
  <path fill="url(#h)" d="M36.62747 220.83189c15.04678 86.29239 26.13246 175.21713 167.56606 177.5188 154.28405-24.11659 156.84049-95.89902 173.41139-162.8996-40.50981 66.31613-93.43975 115.1594-175.35983 123.21892-97.36496-4.68687-125.05169-77.56463-165.61762-137.83812z"/>
  <path fill="#e3e6f1" d="M383.06193 177.62039s-2.63803 13.19016-4.8992 14.69761c-2.26117 1.50744-13.94389 13.94388-13.94389 13.94388l-2.26117 7.53723 1.13059 21.85798-10.55213 16.20506-2.63803 15.45133-7.53724 9.7984h-20.72739l-13.19016-7.16037-6.40665-13.94388-3.76862-9.04469 1.13059-10.92899 4.52234-11.30585-6.78351-16.58191v-14.69761l-15.8282-3.39176-21.10425.37687-18.84309-18.46623-.37686-27.13404 10.92899-18.08936 16.95878-15.07447 29.77207-1.13059 13.19016 10.55213 31.65639-1.13058v-3.76862l-11.68272-13.56702h-5.27606l-2.63803 3.39175s-1.50745-3.76861-1.50745-2.26117c0 1.50745.75372 4.52234.75372 4.52234l-4.52234-6.40665v4.89921l-3.6708-3.44062-6.7188-12.353926-3.6845.21674-1.95062 2.60083 4.33471 6.718796 6.06859 5.20165-.43347 2.16736-3.03429-2.16736-.86695 1.95062.21674 2.60083-2.38409-.86694.21673-3.90124-9.10289-13.220866-13.22087-.65021-4.76818 4.55145-2.81756 10.403296-5.41839 1.30042-1.08368 2.81756-11.05351-3.0343V90.542374l2.3841-2.38409c1.81765-.88212 5.37275-.89641 11.70371-.6502 3.94024-.32222 2.32657-6.19836 0-12.7874l-2.81756-1.51715 2.81756-1.73388 4.33471.6502 11.27025-3.90124 6.28533-6.93553 6.7188-8.66943 3.68451.86695 4.11797-3.90124 4.06343-9.24691c9.68955 8.27679 20.00533 16.62146 27.49814 24.79876 32.11834 32.45403 53.72083 67.452026 51.80744 95.868386-5.32863.34435-5.25327 3.70738-8.49669 7.17955l-12.23575.38802-12.13719-14.30455-11.27025-17.33884 9.7531 20.15641 9.53637 16.90537h15.38822l-.59101 3.63483zm-183.31572 37.62193-2.11534 9.16648-7.75626 9.8716-.70511 13.39717-15.51251 14.10228-2.82046 11.98694-13.39717 12.69206-15.51251 9.87159-3.52557 15.51251-2.82045 16.21763 3.52557 13.39717-12.69206-1.41023-4.23068-5.64091s-6.34603-9.16649-4.9358-13.39717c1.41023-4.23069 1.41023-33.84548 1.41023-33.84548l1.41023-21.85854s-.70754-14.39556-2.11535-17.62785c-1.06966-2.45591-16.8481-17.1798-14.95322-19.07468l-4.08486-14.06568.70512-12.69206 7.75625-9.8716-17.62785-14.80739-1.88431-10.38228-18.564-6.54046-14.8074-13.39717-6.34602-21.85854 1.41022-27.499446c-4.30241 7.365846-4.17276 15.618106-3.52557 23.973876l-1.76808 1.5133-1.13059-9.79841-1.88431-9.7984 6.78351-16.205046s20.79061-19.85867 22.23484-20.7274c2.50607-1.50744 1.68473-6.70752 1.17618-6.70752l25.82263-20.90822 12.57167 14.04872 3.76862 7.9141s4.1461.33391 5.65293.37686c3.53828.10086 8.01172-25.27388 6.40665-26.00346l12.43643 4.52234 12.8133-1.13058 12.43644 18.46622-7.50684 14.83284 2.9845.24163 7.53723.37686-1.13058 8.66782-9.42155-4.52234v-4.8992h-12.43643l.37686 4.8992 8.29096 4.52234-2.63804 10.55213-9.04468-3.39176-9.04468 7.53724-7.91409 2.63803-1.50745 8.290956-4.14548 7.16037-10.17527 7.53723-1.50744 5.27607 2.26117 5.65292-1.50745 1.88431-3.39176-.37686-2.26117-6.02979-2.63803-3.01489-10.55213 1.13058-13.56702 5.27607-3.39175 13.19016 2.26117 3.39175 9.42154 1.88431 2.63803-4.52234 10.92899-.37686-4.14548 6.02979 4.52234 6.78351 5.65293 2.63803-2.63803 5.65292 6.78351 8.29096 10.17526-4.52234 22.23485-.37686 6.02978 9.42154 13.19016 5.27607 9.42155 6.78351 9.04468 10.17526 13.56702 3.39176 9.63748 10.86475z" opacity=".7"/>
  <path fill="#e3e6f1" d="M143.37788 156.13929a4.14548 3.0148947 0 0 1-8.29096 0 4.14548 3.0148947 0 1 1 8.29096 0z" opacity=".7"/>
  <path fill="url(#i)" d="M214.52594 6.5398948C302.46431 20.561174 355.47357 52.086404 346.87978 114.4826c-24.39998 84.0449-98.85612 81.91478-167.49954 89.79171-109.37107-21.70485-112.92585-61.72622-115.87179-101.853 7.16339-75.700846 75.3801-89.549996 151.01749-95.8814152z"/>
  <path fill="#e3e6f1" d="M165.23587 142.76068a.94215429 1.319016 0 1 1-.14323-.69912m-39.0504 7.2942c2.15158 4.70346 9.09922 7.09931-5.27606 7.9141-6.49976-.83396-7.98706-7.97717-18.08937-13.19016 9.39282-2.25218 15.76779 3.04028 23.36543 5.27606zm40.70107-18.8431a.94215429 2.638032 0 1 1-.14322-1.39824m-.98737 52.65145a1.1305852 1.1305852 0 1 1-.17188-.59925m-4.72733-.34292a.37686172.94215429 0 1 1-.0573-.49937m67.51556 2.57212a1.8843086 1.8843086 0 1 1-.28646-.99874m-4.2359 6.27481a.94215429 1.8843086 0 1 1-.14323-.99875m-2.11792 6.27481a.75372344 1.1305852 0 1 1-.11458-.59925m160.65766 36.66229-10.55213 9.42155-6.02978 16.20505 3.76861 8.29096 9.04469-5.27607 3.39175-11.30585 2.63803-8.66782-2.26117-8.66782zM279.40315 61.499814l-2.60083 1.08368-2.60083 1.73388-3.25103 1.73389-2.16736-1.51715 1.30042-3.68451-2.38409-5.41838-.43347-4.76819-.65021-3.03429-2.81756-1.08368 2.38409-2.16736h4.98492v2.60083l4.76818 6.7188 3.6845 3.90124-.21673 3.90124zm-13.87108 1.30041.43347-3.25103-.86694-3.90124-2.60083-.21673-4.33471 2.81756-.43347 3.90124s3.25103 1.51715 4.33471 1.51715c1.08368 0 3.46777-.86695 3.46777-.86695zm-30.53505-52.22688c.001 3.50761-13.24553 12.13081-13.24553 12.13081l-18.85599 5.63512-6.50207 10.40331s-8.45268 1.30041-9.31962.21674c-.86695-1.08368-6.50207-8.45269-6.50207-8.45269s-10.46552-3.03944-9.53636-4.76818c1.67578-3.11786-19.91653-11.10653-20.7305-10.45534 22.24425-6.3867792 52.84194-9.8068792 84.69214-4.70977zm-3.27569 32.28721 7.15227.21674 2.60083-2.81756.6502-3.90124-5.63512-.86694-6.7188.86694-3.0343 3.0343.21674.43347 4.76818 3.03429z" opacity=".7"/>
  <path fill="url(#j)" fill-rule="evenodd" d="M208.94837 237.33272c-61.305 1.25445-108.37961 38.33046-105.14407 82.81158 3.23553 44.48112 55.55597 79.52326 116.86097 78.26881 61.305-1.25445 108.3796-38.33046 105.14407-82.81157-3.23553-44.48113-55.55597-79.52327-116.86097-78.26882z" opacity=".46835441"/>
  <path fill="none" stroke="url(#k)" stroke-width="5" d="M169.11869 202.87125c0 99.15656 11.69838 179.53883 26.12908 179.53883 14.43068 0 26.12906-80.38227 26.12906-179.53883 0-99.15656-11.69838-179.538837-26.12906-179.538837-14.4307 0-26.12908 80.382277-26.12908 179.538837z"/>
  <path fill="none" stroke="url(#l)" stroke-width="5" d="M141.69738 76.507699C60.096991 77.571788 21.726927 135.56357 55.995469 206.03605 90.263968 276.50844 184.19426 332.77501 265.79465 331.71092c81.60039-1.06409 119.97046-59.05588 85.70196-129.52827-34.26854-70.47248-128.19885-126.73904-209.79923-125.674951z"/>
  <use xlink:href="#m" fill-rule="evenodd" filter="url(#a)" transform="matrix(.99132 0 0 1.01985 23.878498 -253.73902)"/>
  <use xlink:href="#m" fill-rule="evenodd" filter="url(#n)" transform="matrix(.88118 0 0 .90653 4.961992 -223.17678)"/>
  <use xlink:href="#m" fill-rule="evenodd" filter="url(#o)" transform="matrix(1.4194 0 0 1.46334 -118.05725 -194.61686)"/>
  <path fill="none" stroke="url(#p)" stroke-width="4.64010096" d="M212.19864 192.60789c52.76137-79.22298 99.54177-140.504607 104.48693-136.876359 4.94517 3.628253-33.81752 70.792439-86.57889 150.015419s-99.54176 140.50461-104.48693 136.87636c-4.94517-3.62825 33.81752-70.79244 86.57889-150.01542z"/>
  <use xlink:href="#m" fill-rule="evenodd" filter="url(#q)" transform="matrix(1.10147 0 0 1.13316 66.8255 -256.41909)"/>
  <use xlink:href="#m" fill-rule="evenodd" filter="url(#r)" transform="matrix(1.21162 0 0 1.24648 -13.370076 -206.53428)"/>
  <path fill="#e3e6f1" d="M162.83483 386.89854c22.48747-15.69642 11.27745-17.27867 20.38403-20.23002 13.91318-4.50911 43.35225 6.76461 43.35225 6.76461s22.1813 7.16185 33.3236 9.98354c6.09329 1.54307 10.46554-13.73761 16.74815-13.54242 11.68148.36291 22.9682 5.88013 22.9682 5.88013s-15.10414 4.57739-18.85157 7.81631c-7.53806 6.51517-29.6514 10.5094-42.06951 12.75363-12.4181 2.24424-25.53685 1.669-38.152 1.34654-14.4392-.36908-41.29393-4.48846-41.29393-4.48846s-17.43773-.66839-24.23775-5.38617c-5.86455-4.06876-15.59404 1.55575-15.47862-12.87574.0574-7.1704 9.93198 3.44129 19.79228 6.32411 11.10693 3.2473 23.51487 5.65394 23.51487 5.65394z" opacity=".7"/>
  <ellipse cx="238.16667" cy="241.83334" fill="none" stroke="#0b1e46" stroke-width="5" rx="198.83333" ry="196.16666" transform="translate(-34.65789 -38.342106)"/>
</svg>