<?xml version="1.0" encoding="UTF-8" standalone="no"?>
<svg
   xmlns:dc="http://purl.org/dc/elements/1.1/"
   xmlns:cc="http://creativecommons.org/ns#"
   xmlns:rdf="http://www.w3.org/1999/02/22-rdf-syntax-ns#"
   xmlns:svg="http://www.w3.org/2000/svg"
   xmlns="http://www.w3.org/2000/svg"
   xmlns:sodipodi="http://sodipodi.sourceforge.net/DTD/sodipodi-0.dtd"
   xmlns:inkscape="http://www.inkscape.org/namespaces/inkscape"
   inkscape:version="1.0 (4035a4f, 2020-05-01)"
   height="263"
   width="246"
   sodipodi:docname="PAWS no text.svg"
   xml:space="preserve"
   viewBox="0 0 246 263"
   y="0px"
   x="0px"
   id="Layer_1"
   version="1.1"><metadata
   id="metadata43"><rdf:RDF><cc:Work
       rdf:about=""><dc:format>image/svg+xml</dc:format><dc:type
         rdf:resource="http://purl.org/dc/dcmitype/StillImage" /><dc:title></dc:title></cc:Work></rdf:RDF></metadata><defs
   id="defs41" /><sodipodi:namedview
   inkscape:current-layer="Layer_1"
   inkscape:window-maximized="0"
   inkscape:window-y="39"
   inkscape:window-x="33"
   inkscape:cy="142.5"
   inkscape:cx="304.64444"
   inkscape:zoom="0.79172932"
   fit-margin-bottom="5"
   fit-margin-right="5"
   fit-margin-left="5"
   lock-margins="true"
   fit-margin-top="5"
   showgrid="false"
   id="namedview39"
   inkscape:window-height="690"
   inkscape:window-width="1160"
   inkscape:pageshadow="2"
   inkscape:pageopacity="0"
   guidetolerance="10"
   gridtolerance="10"
   objecttolerance="10"
   borderopacity="1"
   bordercolor="#666666"
   pagecolor="#ffffff" />
<style
   id="style10"
   type="text/css">
	.st0{fill:#3883B0;}
	.st1{enable-background:new    ;}
</style>
<g
   transform="translate(-64.8,-32.5)"
   id="Layer_3">
	<g
   id="g24">
		<polyline
   id="polyline12"
   points="70.1,177.1 70.1,37.5 153.6,73.3   "
   class="st0" />
		<g
   id="g20">
			<path
   id="path14"
   d="m 282.9,115.8 c -1.2,-2 -2.5,-4 -3.9,-6 l -1.3,3.9 c 0,0 1.4,0.5 3.6,1.3 0.4,0.3 1,0.5 1.6,0.8 z"
   class="st0" />
			<path
   id="path16"
   d="m 241.6,173.5 c 0,8.3 6.8,15.1 15.1,15.1 8.3,0 15.1,-6.7 15.1,-15.1 0,-8.3 -6.7,-15.1 -15.1,-15.1 -8.4,0.1 -15.1,6.8 -15.1,15.1 z"
   class="st0" />
			<path
   id="path18"
   d="m 258.6,248.6 -0.2,-11.9 c 0,0 -0.4,0 -1.1,0.1 v 0 c -0.2,0 -0.5,0 -0.8,0 -0.6,0 -1.2,-0.1 -1.9,-0.1 -1.4,-0.1 -2.9,-0.2 -4.7,-0.2 -1.3,-0.2 -2.7,-0.4 -4,-0.7 -1.3,-0.1 -2.8,-0.5 -4.2,-0.9 -1.4,-0.4 -2.7,-0.6 -3.8,-1 -2.2,-0.8 -3.6,-1.3 -3.6,-1.3 l -4.3,11.1 c -7.4,-2.9 -14.2,-6.8 -20.3,-11.8 l 7.5,-9.2 c 0,0 -4.8,-3.9 -8.7,-8.6 -1.8,-2.5 -3.8,-4.8 -4.9,-6.9 -1.2,-2 -2,-3.3 -2,-3.3 l -10.4,5.7 c -3.6,-6.6 -6.3,-13.9 -7.8,-21.5 l 11.6,-2.3 c 0,0 -0.2,-1.5 -0.6,-3.8 -0.2,-1.1 -0.4,-2.5 -0.4,-3.9 0,-0.7 -0.1,-1.5 -0.1,-2.2 l -0.1,-1.1 v -0.6 -0.3 -0.1 c 0.1,-1.7 0.2,-3.3 0.2,-4.9 0.1,-0.8 0.1,-1.7 0.1,-2.4 0.1,-0.6 0.2,-1.1 0.3,-1.7 0.3,-2.1 0.5,-3.4 0.5,-3.4 l -11.6,-2.2 c 1.5,-7.7 4.2,-15 7.9,-21.7 l 10.4,5.7 c 0,0 0.8,-1.3 2,-3.3 0.6,-1 1.3,-2.1 2.2,-3.3 0.9,-1.1 1.7,-2.4 2.7,-3.6 2.1,-2.3 4.1,-4.6 5.9,-6.1 0.9,-0.8 1.6,-1.4 2.1,-1.9 0.5,-0.5 0.8,-0.7 0.8,-0.7 l -7.4,-9.2 c 6.1,-4.9 12.9,-8.9 20.3,-11.7 l 4.2,11.1 c 0,0 1.4,-0.5 3.6,-1.3 1.1,-0.3 2.4,-0.6 3.8,-1 1.4,-0.4 2.9,-0.8 4.4,-0.9 1.5,-0.2 3,-0.5 4.5,-0.7 1.4,-0.1 2.8,-0.1 3.9,-0.2 0.6,0 1.1,-0.1 1.6,-0.1 0.2,0 0.4,0 0.6,0 h 0.1 c 0.8,0 1.2,0.1 1.2,0.1 l 0.6,-11.9 c 4.1,0.1 8.2,0.5 12.1,1.3 -21,-23.9 -51.8,-38.9 -86.2,-38.9 -63.4,0 -114.8,51.4 -114.8,114.8 0,63.4 51.4,114.8 114.8,114.8 36.7,0 69.4,-17.3 90.4,-44.1 -5,1.3 -10.6,2.1 -16.4,2.2 z M 115,188.6 c -8.3,0 -15.1,-6.7 -15.1,-15.1 0,-8.3 6.7,-15.1 15.1,-15.1 8.3,0 15.1,6.7 15.1,15.1 0,8.4 -6.8,15.1 -15.1,15.1 z"
   class="st0" />
		</g>
		<path
   id="path22"
   d="m 254.8,110.4 c 0.6,0 1.1,-0.1 1.6,-0.1 0.2,0 0.4,0 0.6,0 h 0.1 c 0.8,0 1.2,0.1 1.2,0.1 l 0.6,-11.9 c 7.9,0.2 15.4,1.6 22.5,4 l -3.9,11.2 c 0,0 1.4,0.5 3.6,1.3 1.1,0.4 2.3,1.1 3.6,1.7 1.3,0.6 2.7,1.2 4,2.1 1.3,0.8 2.6,1.6 3.9,2.3 1.2,0.9 2.2,1.7 3.1,2.4 1.9,1.3 3,2.4 3,2.4 l 7.1,-8.1 v -1.4 -77.6 l -83.5,35.8 28.9,35.9 c 1.4,0 2.6,0 3.6,-0.1 z"
   class="st0" />
	</g>
</g>

</svg>
