<?xml version="1.0"?>
<!--
Icon by Hay Kranen < http://www.haykranen.nl >
Uses elements designed by Michael Rowe < http://www.thenounproject.com/Mikhail1986 >
from the Noun Project < http://www.thenounproject.com >, licensed under CC-BY 3.0
-->
<svg xmlns="http://www.w3.org/2000/svg" width="55px" height="56px" viewBox="0 0 55 56">
<rect fill="#008cbb" width="55" height="56"/>
<g fill="#fff">
	<path d="m27.08 39.828c0 1.136.926 2.061 2.061 2.061 1.137 0 2.062-.925 2.062-2.061 0-1.137-.926-2.062-2.062-2.062-1.135.0001-2.061.925-2.061 2.062"/>
	<path d="m19.947 39.828c0 1.136.925 2.061 2.061 2.061 1.137 0 2.061-.925 2.061-2.061 0-1.137-.924-2.062-2.061-2.062-1.137.0001-2.061.925-2.061 2.062"/>
	<path d="m12.817 39.828c0 1.136.925 2.061 2.06 2.061 1.137 0 2.061-.925 2.061-2.061 0-1.137-.924-2.062-2.061-2.062-1.135.0001-2.06.925-2.06 2.062"/>
	<polygon points="35.283,18.582 36.695,16.285 34.48,14.923 32.685,17.844 32.684,17.844 32.684,23.322 35.283,23.322"/>
	<path d="m9.251 39.718c0 3.1 2.524 5.624 5.626 5.624h14.26c3.102 0 5.627-2.524 5.627-5.624 0-3.104-2.525-5.626-5.627-5.626h-14.26c-3.102 0-5.626 2.522-5.626 5.626m1.783 0c0-2.122 1.726-3.845 3.843-3.845h14.26c2.121 0 3.844 1.724 3.844 3.845 0 2.118-1.723 3.842-3.844 3.842h-14.26c-2.118 0-3.843-1.724-3.843-3.842"/>
	<path d="m5.576 23.953v16.04h2.798c-.003-.093-.014-.186-.014-.276 0-3.595 2.924-6.519 6.518-6.519h14.261c3.594 0 6.516 2.924 6.516 6.519 0 .091-.009.184-.013.276h4.47v-6.812h1.813c.593 3.854 3.899 6.822 7.916 6.822v-2.547c-3.03 0-5.491-2.463-5.491-5.491 0-3.03 2.465-5.49 5.491-5.49v-2.547c-4.02 0-7.323 2.968-7.916 6.822h-1.813v-6.796h-9.585l-4.453-12.478h-4.457-2.673-5.348v3.565 8.913h-8.02zm11.585-9.804h6.621l3.183 9.804v5.348h-1.819-6.313-1.671v-5.348-9.804zm-4.887 16.15h-4.456v-4.456h4.456v4.456"/>
</g>
</svg>